<?xml version="1.0" encoding="UTF-8" standalone="no"?>
<svg
   xmlns:dc="http://purl.org/dc/elements/1.1/"
   xmlns:cc="http://creativecommons.org/ns#"
   xmlns:rdf="http://www.w3.org/1999/02/22-rdf-syntax-ns#"
   xmlns:svg="http://www.w3.org/2000/svg"
   xmlns="http://www.w3.org/2000/svg"
   xmlns:xlink="http://www.w3.org/1999/xlink"
   xmlns:sodipodi="http://sodipodi.sourceforge.net/DTD/sodipodi-0.dtd"
   xmlns:inkscape="http://www.inkscape.org/namespaces/inkscape"
   width="825"
   height="725"
   id="svg2"
   version="1.1"
   inkscape:version="0.91 r13725"
   sodipodi:docname="gRpc - People4.svg">
  <metadata
     id="metadata303">
    <rdf:RDF>
      <cc:Work
         rdf:about="">
        <dc:format>image/svg+xml</dc:format>
        <dc:type
           rdf:resource="http://purl.org/dc/dcmitype/StillImage" />
        <dc:title></dc:title>
      </cc:Work>
    </rdf:RDF>
  </metadata>
  <defs
     id="defs301" />
  <sodipodi:namedview
     pagecolor="#ffffff"
     bordercolor="#666666"
     borderopacity="1"
     objecttolerance="10"
     gridtolerance="10"
     guidetolerance="10"
     inkscape:pageopacity="0"
     inkscape:pageshadow="2"
     inkscape:window-width="640"
     inkscape:window-height="480"
     id="namedview299"
     showgrid="false"
     fit-margin-top="0"
     fit-margin-left="0"
     fit-margin-right="0"
     fit-margin-bottom="0"
     inkscape:zoom="0.30477203"
     inkscape:cx="416.19005"
     inkscape:cy="362.5"
     inkscape:window-x="10"
     inkscape:window-y="34"
     inkscape:window-maximized="0"
     inkscape:current-layer="svg2" />
  <g
     id="g4"
     transform="translate(-15.28,-15.28)">
    <path
       d="m 17.78,17.78 820,0 0,720 -820,0 z"
       id="path6"
       inkscape:connector-curvature="0"
       style="fill:none;stroke:#b92fd1;stroke-width:5" />
    <use
       xlink:href="#a"
       transform="translate(384.87778,41.377778)"
       id="use8"
       x="0"
       y="0"
       width="100%"
       height="100%" />
    <path
       d="m 737.53,317.53 c 0,10.9 -8.84,19.75 -19.75,19.75 -10.9,0 -19.75,-8.84 -19.75,-19.75 0,-10.9 8.84,-19.75 19.75,-19.75 10.9,0 19.75,8.84 19.75,19.75 z"
       id="path10"
       inkscape:connector-curvature="0"
       style="fill:#47a8f5;stroke:#ffffff;stroke-width:2" />
    <path
       d="m 677.78,297.78 80,0 0,158 -80,0 z"
       id="path12"
       inkscape:connector-curvature="0"
       style="fill:none" />
    <path
       d="m 717.78,337.28 0,55.3 40,63.2 m -40,-63.2 -40,63.2 m 0,-98.75 80,0"
       id="path14"
       inkscape:connector-curvature="0"
       style="fill:none;stroke:#ffffff;stroke-width:2" />
    <use
       xlink:href="#b"
       transform="translate(654.92778,470.17778)"
       id="use16"
       x="0"
       y="0"
       width="100%"
       height="100%" />
    <use
       xlink:href="#c"
       transform="translate(691.82778,470.17778)"
       id="use18"
       x="0"
       y="0"
       width="100%"
       height="100%" />
    <use
       xlink:href="#d"
       transform="translate(674.87778,491.77778)"
       id="use20"
       x="0"
       y="0"
       width="100%"
       height="100%" />
    <use
       xlink:href="#e"
       transform="translate(715.77778,491.77778)"
       id="use22"
       x="0"
       y="0"
       width="100%"
       height="100%" />
    <path
       d="m 197.53,97.53 c 0,10.9 -8.84,19.75 -19.75,19.75 -10.9,0 -19.75,-8.84 -19.75,-19.75 0,-10.9 8.84,-19.75 19.75,-19.75 10.9,0 19.75,8.84 19.75,19.75 z"
       id="path24"
       inkscape:connector-curvature="0"
       style="fill:#9ecd67;stroke:#ffffff;stroke-width:2" />
    <path
       d="m 137.78,77.78 80,0 0,158 -80,0 z"
       id="path26"
       inkscape:connector-curvature="0"
       style="fill:none" />
    <path
       d="m 177.78,117.28 0,55.3 40,63.2 m -40,-63.2 -40,63.2 m 0,-98.75 80,0"
       id="path28"
       inkscape:connector-curvature="0"
       style="fill:none;stroke:#ffffff;stroke-width:2" />
    <use
       xlink:href="#f"
       transform="translate(108.82778,250.17778)"
       id="use30"
       x="0"
       y="0"
       width="100%"
       height="100%" />
    <use
       xlink:href="#g"
       transform="translate(172.82778,250.17778)"
       id="use32"
       x="0"
       y="0"
       width="100%"
       height="100%" />
    <use
       xlink:href="#d"
       transform="translate(138.32778,271.77778)"
       id="use34"
       x="0"
       y="0"
       width="100%"
       height="100%" />
    <use
       xlink:href="#h"
       transform="translate(179.22778,271.77778)"
       id="use36"
       x="0"
       y="0"
       width="100%"
       height="100%" />
    <path
       d="m 197.53,537.53 c 0,10.9 -8.84,19.75 -19.75,19.75 -10.9,0 -19.75,-8.84 -19.75,-19.75 0,-10.9 8.84,-19.75 19.75,-19.75 10.9,0 19.75,8.84 19.75,19.75 z"
       id="path38"
       inkscape:connector-curvature="0"
       style="fill:#ff7549;stroke:#ffffff;stroke-width:2" />
    <path
       d="m 137.78,517.78 80,0 0,158 -80,0 z"
       id="path40"
       inkscape:connector-curvature="0"
       style="fill:none" />
    <path
       d="m 177.78,557.28 0,55.3 40,63.2 m -40,-63.2 -40,63.2 m 0,-98.75 80,0"
       id="path42"
       inkscape:connector-curvature="0"
       style="fill:none;stroke:#ffffff;stroke-width:2" />
    <use
       xlink:href="#i"
       transform="translate(116.85278,690.37778)"
       id="use44"
       x="0"
       y="0"
       width="100%"
       height="100%" />
    <use
       xlink:href="#j"
       transform="translate(164.80278,690.37778)"
       id="use46"
       x="0"
       y="0"
       width="100%"
       height="100%" />
    <path
       d="m 217.78,167.78 20.3,0.42 18.84,1.18 17.74,1.86 16.95,2.5 16.44,3.14 16.2,3.8 16.25,4.53 16.7,5.44 17.7,6.6 19.66,8.28 23.88,11.26 38.53,20.3 107.66,58.53 33.52,15.8 30.4,12.8 9.23,3.58"
       id="path48"
       inkscape:connector-curvature="0"
       style="fill:none;stroke:#ffffff;stroke-width:5" />
    <path
       d="m 231.95,172.7 -14.17,-4.92 14.36,-4.34 z"
       id="path50"
       inkscape:connector-curvature="0"
       style="fill:#ffffff" />
    <path
       d="m 234.38,176.2 -16.6,-5.78 0,-5.25 16.93,-5.12 z m -8.5,-8.25 3.64,1.27 0.05,-2.4 z"
       id="path52"
       inkscape:connector-curvature="0"
       style="fill:#ffffff" />
    <path
       d="m 377.78,156.1 240,0 0,63.34 -240,0 z"
       id="path54"
       inkscape:connector-curvature="0"
       style="fill:none" />
    <g
       id="g56">
      <use
         xlink:href="#k"
         transform="translate(398.56667,183.37778)"
         id="use58"
         x="0"
         y="0"
         width="100%"
         height="100%" />
      <use
         xlink:href="#l"
         transform="translate(487.74444,183.37778)"
         id="use60"
         x="0"
         y="0"
         width="100%"
         height="100%" />
      <use
         xlink:href="#m"
         transform="translate(523.85556,183.37778)"
         id="use62"
         x="0"
         y="0"
         width="100%"
         height="100%" />
      <use
         xlink:href="#n"
         transform="translate(581.65556,183.37778)"
         id="use64"
         x="0"
         y="0"
         width="100%"
         height="100%" />
      <use
         xlink:href="#o"
         transform="translate(474.9,210.04444)"
         id="use66"
         x="0"
         y="0"
         width="100%"
         height="100%" />
    </g>
    <defs
       id="defs68">
      <path
         d="m 212,-179 c -10,-28 -35,-45 -73,-45 -59,0 -87,40 -87,99 0,60 29,101 89,101 43,0 62,-24 78,-52 l 27,14 C 228,-24 195,4 139,4 59,4 22,-46 18,-125 c -6,-104 99,-153 187,-111 19,9 31,26 39,46"
         id="p"
         inkscape:connector-curvature="0"
         style="fill:#ffffff" />
      <path
         d="m 24,0 0,-261 32,0 0,261 -32,0"
         id="q"
         inkscape:connector-curvature="0"
         style="fill:#ffffff" />
      <path
         d="M 141,-36 C 126,-15 110,5 73,4 37,3 15,-17 15,-53 c -1,-64 63,-63 125,-63 3,-35 -9,-54 -41,-54 -24,1 -41,7 -42,31 l -33,-3 c 5,-37 33,-52 76,-52 45,0 72,20 72,64 l 0,82 c -1,20 7,32 28,27 l 0,20 C 169,8 139,-3 141,-36 Z M 48,-53 c 0,20 12,33 32,33 41,-3 63,-29 60,-74 -43,2 -92,-5 -92,41"
         id="r"
         inkscape:connector-curvature="0"
         style="fill:#ffffff" />
      <path
         d="m 135,-143 c -3,-34 -86,-38 -87,0 15,53 115,12 119,90 4,78 -150,74 -157,8 l 28,-5 c 4,36 97,45 98,0 -10,-56 -113,-15 -118,-90 -4,-57 82,-63 122,-42 12,7 21,19 24,35"
         id="s"
         inkscape:connector-curvature="0"
         style="fill:#ffffff" />
      <path
         d="M 114,-163 C 36,-179 61,-72 57,0 l -32,0 -1,-190 30,0 c 1,12 -1,29 2,39 6,-27 23,-49 58,-41 l 0,29"
         id="t"
         inkscape:connector-curvature="0"
         style="fill:#ffffff" />
      <path
         d="m 100,-194 c 62,-1 85,37 85,99 1,63 -27,99 -86,99 -59,0 -83,-39 -84,-99 0,-66 28,-99 85,-99 z m -1,174 c 44,1 53,-31 53,-75 0,-43 -8,-75 -51,-75 -43,0 -53,32 -53,75 0,43 10,74 51,75"
         id="u"
         inkscape:connector-curvature="0"
         style="fill:#ffffff" />
      <path
         d="m 210,-169 c -67,3 -38,105 -44,169 l -31,0 0,-121 c 0,-29 -5,-50 -35,-48 -66,4 -38,104 -44,169 l -31,0 -1,-190 30,0 c 1,10 -1,24 2,32 10,-44 99,-50 107,0 11,-21 27,-35 58,-36 85,-2 47,119 55,194 l -31,0 0,-121 c 0,-29 -5,-49 -35,-48"
         id="v"
         inkscape:connector-curvature="0"
         style="fill:#ffffff" />
      <g
         id="a">
        <use
           transform="scale(0.05,0.05)"
           xlink:href="#p"
           id="use78"
           x="0"
           y="0"
           width="100%"
           height="100%" />
        <use
           transform="matrix(0.05,0,0,0.05,12.95,0)"
           xlink:href="#q"
           id="use80"
           x="0"
           y="0"
           width="100%"
           height="100%" />
        <use
           transform="matrix(0.05,0,0,0.05,16.9,0)"
           xlink:href="#r"
           id="use82"
           x="0"
           y="0"
           width="100%"
           height="100%" />
        <use
           transform="matrix(0.05,0,0,0.05,26.9,0)"
           xlink:href="#s"
           id="use84"
           x="0"
           y="0"
           width="100%"
           height="100%" />
        <use
           transform="matrix(0.05,0,0,0.05,35.9,0)"
           xlink:href="#s"
           id="use86"
           x="0"
           y="0"
           width="100%"
           height="100%" />
        <use
           transform="matrix(0.05,0,0,0.05,44.9,0)"
           xlink:href="#t"
           id="use88"
           x="0"
           y="0"
           width="100%"
           height="100%" />
        <use
           transform="matrix(0.05,0,0,0.05,50.85,0)"
           xlink:href="#u"
           id="use90"
           x="0"
           y="0"
           width="100%"
           height="100%" />
        <use
           transform="matrix(0.05,0,0,0.05,60.85,0)"
           xlink:href="#u"
           id="use92"
           x="0"
           y="0"
           width="100%"
           height="100%" />
        <use
           transform="matrix(0.05,0,0,0.05,70.85,0)"
           xlink:href="#v"
           id="use94"
           x="0"
           y="0"
           width="100%"
           height="100%" />
      </g>
      <path
         d="m 194,0 -99,-120 -32,25 0,95 -33,0 0,-248 33,0 0,124 119,-124 40,0 -105,108 119,140 -42,0"
         id="w"
         inkscape:connector-curvature="0"
         style="fill:#ffffff" />
      <g
         id="b">
        <use
           transform="scale(0.05,0.05)"
           xlink:href="#w"
           id="use98"
           x="0"
           y="0"
           width="100%"
           height="100%" />
        <use
           transform="matrix(0.05,0,0,0.05,12,0)"
           xlink:href="#r"
           id="use100"
           x="0"
           y="0"
           width="100%"
           height="100%" />
        <use
           transform="matrix(0.05,0,0,0.05,22,0)"
           xlink:href="#t"
           id="use102"
           x="0"
           y="0"
           width="100%"
           height="100%" />
        <use
           transform="matrix(0.05,0,0,0.05,27.95,0)"
           xlink:href="#q"
           id="use104"
           x="0"
           y="0"
           width="100%"
           height="100%" />
      </g>
      <path
         d="M 87,75 C 49,33 22,-17 22,-94 c 0,-76 28,-126 65,-167 l 31,0 c -38,41 -64,92 -64,168 0,76 26,127 64,168 l -31,0"
         id="x"
         inkscape:connector-curvature="0"
         style="fill:#ffffff" />
      <path
         d="m 30,-248 c 87,1 191,-15 191,75 0,78 -77,80 -158,76 l 0,97 -33,0 0,-248 z m 33,125 c 57,0 124,11 124,-50 0,-59 -68,-47 -124,-48 l 0,98"
         id="y"
         inkscape:connector-curvature="0"
         style="fill:#ffffff" />
      <path
         d="m 101,-234 c -31,-9 -42,10 -38,44 l 38,0 0,23 -38,0 0,167 -31,0 0,-167 -27,0 0,-23 27,0 c -7,-52 17,-82 69,-68 l 0,24"
         id="z"
         inkscape:connector-curvature="0"
         style="fill:#ffffff" />
      <path
         d="m 100,-194 c 63,0 86,42 84,106 l -135,0 c 0,40 14,67 53,68 26,1 43,-12 49,-29 l 28,8 C 168,-13 142,4 102,4 44,4 14,-33 15,-96 c 1,-61 26,-98 85,-98 z m 52,81 c 6,-60 -76,-77 -97,-28 -3,7 -6,17 -6,28 l 103,0"
         id="A"
         inkscape:connector-curvature="0"
         style="fill:#ffffff" />
      <path
         d="m 33,-261 c 38,41 65,92 65,168 C 98,-17 71,34 33,75 L 2,75 C 39,34 66,-17 66,-93 66,-169 39,-220 2,-261 l 31,0"
         id="B"
         inkscape:connector-curvature="0"
         style="fill:#ffffff" />
      <g
         id="c">
        <use
           transform="scale(0.05,0.05)"
           xlink:href="#x"
           id="use112"
           x="0"
           y="0"
           width="100%"
           height="100%" />
        <use
           transform="matrix(0.05,0,0,0.05,5.95,0)"
           xlink:href="#y"
           id="use114"
           x="0"
           y="0"
           width="100%"
           height="100%" />
        <use
           transform="matrix(0.05,0,0,0.05,17.95,0)"
           xlink:href="#t"
           id="use116"
           x="0"
           y="0"
           width="100%"
           height="100%" />
        <use
           transform="matrix(0.05,0,0,0.05,23.9,0)"
           xlink:href="#u"
           id="use118"
           x="0"
           y="0"
           width="100%"
           height="100%" />
        <use
           transform="matrix(0.05,0,0,0.05,33.9,0)"
           xlink:href="#z"
           id="use120"
           x="0"
           y="0"
           width="100%"
           height="100%" />
        <use
           transform="matrix(0.05,0,0,0.05,38.9,0)"
           xlink:href="#A"
           id="use122"
           x="0"
           y="0"
           width="100%"
           height="100%" />
        <use
           transform="matrix(0.05,0,0,0.05,48.9,0)"
           xlink:href="#s"
           id="use124"
           x="0"
           y="0"
           width="100%"
           height="100%" />
        <use
           transform="matrix(0.05,0,0,0.05,57.9,0)"
           xlink:href="#s"
           id="use126"
           x="0"
           y="0"
           width="100%"
           height="100%" />
        <use
           transform="matrix(0.05,0,0,0.05,66.9,0)"
           xlink:href="#u"
           id="use128"
           x="0"
           y="0"
           width="100%"
           height="100%" />
        <use
           transform="matrix(0.05,0,0,0.05,76.9,0)"
           xlink:href="#t"
           id="use130"
           x="0"
           y="0"
           width="100%"
           height="100%" />
        <use
           transform="matrix(0.05,0,0,0.05,82.85,0)"
           xlink:href="#B"
           id="use132"
           x="0"
           y="0"
           width="100%"
           height="100%" />
      </g>
      <g
         id="d">
        <use
           transform="scale(0.05,0.05)"
           xlink:href="#z"
           id="use135"
           x="0"
           y="0"
           width="100%"
           height="100%" />
        <use
           transform="matrix(0.05,0,0,0.05,5,0)"
           xlink:href="#t"
           id="use137"
           x="0"
           y="0"
           width="100%"
           height="100%" />
        <use
           transform="matrix(0.05,0,0,0.05,10.95,0)"
           xlink:href="#u"
           id="use139"
           x="0"
           y="0"
           width="100%"
           height="100%" />
        <use
           transform="matrix(0.05,0,0,0.05,20.95,0)"
           xlink:href="#v"
           id="use141"
           x="0"
           y="0"
           width="100%"
           height="100%" />
      </g>
      <path
         d="m 59,-47 c -2,24 18,29 38,22 l 0,24 C 64,9 27,4 27,-40 l 0,-127 -22,0 0,-23 24,0 9,-43 21,0 0,43 35,0 0,23 -35,0 0,120"
         id="C"
         inkscape:connector-curvature="0"
         style="fill:#ffffff" />
      <path
         d="m 24,-231 0,-30 32,0 0,30 -32,0 z m 0,231 0,-190 32,0 0,190 -32,0"
         id="D"
         inkscape:connector-curvature="0"
         style="fill:#ffffff" />
      <path
         d="m 117,-194 c 89,-4 53,116 60,194 l -32,0 0,-121 c 0,-31 -8,-49 -39,-48 -72,2 -44,102 -49,169 l -32,0 -1,-190 30,0 c 1,10 -1,24 2,32 11,-22 29,-35 61,-36"
         id="E"
         inkscape:connector-curvature="0"
         style="fill:#ffffff" />
      <g
         id="e">
        <use
           transform="scale(0.05,0.05)"
           xlink:href="#w"
           id="use147"
           x="0"
           y="0"
           width="100%"
           height="100%" />
        <use
           transform="matrix(0.05,0,0,0.05,12,0)"
           xlink:href="#u"
           id="use149"
           x="0"
           y="0"
           width="100%"
           height="100%" />
        <use
           transform="matrix(0.05,0,0,0.05,22,0)"
           xlink:href="#C"
           id="use151"
           x="0"
           y="0"
           width="100%"
           height="100%" />
        <use
           transform="matrix(0.05,0,0,0.05,27,0)"
           xlink:href="#q"
           id="use153"
           x="0"
           y="0"
           width="100%"
           height="100%" />
        <use
           transform="matrix(0.05,0,0,0.05,30.95,0)"
           xlink:href="#D"
           id="use155"
           x="0"
           y="0"
           width="100%"
           height="100%" />
        <use
           transform="matrix(0.05,0,0,0.05,34.9,0)"
           xlink:href="#E"
           id="use157"
           x="0"
           y="0"
           width="100%"
           height="100%" />
      </g>
      <path
         d="M 153,-248 C 145,-148 188,4 80,4 36,3 13,-21 6,-62 l 32,-5 c 4,25 16,42 43,43 27,0 39,-20 39,-49 l 0,-147 -48,0 0,-28 81,0"
         id="F"
         inkscape:connector-curvature="0"
         style="fill:#ffffff" />
      <path
         d="M 106,-169 C 34,-169 62,-67 57,0 l -32,0 0,-261 32,0 -1,103 c 12,-21 28,-36 61,-36 89,0 53,116 60,194 l -32,0 0,-121 c 2,-32 -8,-49 -39,-48"
         id="G"
         inkscape:connector-curvature="0"
         style="fill:#ffffff" />
      <g
         id="f">
        <use
           transform="scale(0.05,0.05)"
           xlink:href="#F"
           id="use162"
           x="0"
           y="0"
           width="100%"
           height="100%" />
        <use
           transform="matrix(0.05,0,0,0.05,9,0)"
           xlink:href="#u"
           id="use164"
           x="0"
           y="0"
           width="100%"
           height="100%" />
        <use
           transform="matrix(0.05,0,0,0.05,19,0)"
           xlink:href="#G"
           id="use166"
           x="0"
           y="0"
           width="100%"
           height="100%" />
        <use
           transform="matrix(0.05,0,0,0.05,29,0)"
           xlink:href="#r"
           id="use168"
           x="0"
           y="0"
           width="100%"
           height="100%" />
        <use
           transform="matrix(0.05,0,0,0.05,39,0)"
           xlink:href="#E"
           id="use170"
           x="0"
           y="0"
           width="100%"
           height="100%" />
        <use
           transform="matrix(0.05,0,0,0.05,49,0)"
           xlink:href="#E"
           id="use172"
           x="0"
           y="0"
           width="100%"
           height="100%" />
      </g>
      <path
         d="m 185,-189 c -5,-48 -123,-54 -124,2 14,75 158,14 163,119 C 227,10 103,19 49,-13 32,-23 21,-39 16,-59 l 33,-7 c 5,56 141,63 141,-1 0,-78 -155,-14 -162,-118 -5,-82 145,-84 179,-34 5,7 8,16 11,25"
         id="H"
         inkscape:connector-curvature="0"
         style="fill:#ffffff" />
      <path
         d="M 84,4 C -5,8 30,-112 23,-190 l 32,0 0,120 c 0,31 7,50 39,49 72,-2 45,-101 50,-169 l 31,0 1,190 -30,0 c -1,-10 1,-25 -2,-33 -11,22 -28,36 -60,37"
         id="I"
         inkscape:connector-curvature="0"
         style="fill:#ffffff" />
      <path
         d="m 85,-194 c 31,0 48,13 60,33 l -1,-100 32,0 1,261 -30,0 c -2,-10 0,-23 -3,-31 C 134,-8 116,4 85,4 32,4 16,-35 15,-94 c 0,-66 23,-100 70,-100 z m 9,24 c -40,0 -46,34 -46,75 0,40 6,74 45,74 42,0 51,-32 51,-76 0,-42 -9,-74 -50,-73"
         id="J"
         inkscape:connector-curvature="0"
         style="fill:#ffffff" />
      <g
         id="g">
        <use
           transform="scale(0.05,0.05)"
           xlink:href="#x"
           id="use178"
           x="0"
           y="0"
           width="100%"
           height="100%" />
        <use
           transform="matrix(0.05,0,0,0.05,5.95,0)"
           xlink:href="#H"
           id="use180"
           x="0"
           y="0"
           width="100%"
           height="100%" />
        <use
           transform="matrix(0.05,0,0,0.05,17.95,0)"
           xlink:href="#C"
           id="use182"
           x="0"
           y="0"
           width="100%"
           height="100%" />
        <use
           transform="matrix(0.05,0,0,0.05,22.95,0)"
           xlink:href="#I"
           id="use184"
           x="0"
           y="0"
           width="100%"
           height="100%" />
        <use
           transform="matrix(0.05,0,0,0.05,32.95,0)"
           xlink:href="#J"
           id="use186"
           x="0"
           y="0"
           width="100%"
           height="100%" />
        <use
           transform="matrix(0.05,0,0,0.05,42.95,0)"
           xlink:href="#A"
           id="use188"
           x="0"
           y="0"
           width="100%"
           height="100%" />
        <use
           transform="matrix(0.05,0,0,0.05,52.95,0)"
           xlink:href="#E"
           id="use190"
           x="0"
           y="0"
           width="100%"
           height="100%" />
        <use
           transform="matrix(0.05,0,0,0.05,62.95,0)"
           xlink:href="#C"
           id="use192"
           x="0"
           y="0"
           width="100%"
           height="100%" />
        <use
           transform="matrix(0.05,0,0,0.05,67.95,0)"
           xlink:href="#B"
           id="use194"
           x="0"
           y="0"
           width="100%"
           height="100%" />
      </g>
      <path
         d="M 108,0 70,0 1,-190 l 34,0 54,165 56,-165 34,0"
         id="K"
         inkscape:connector-curvature="0"
         style="fill:#ffffff" />
      <g
         id="h">
        <use
           transform="scale(0.05,0.05)"
           xlink:href="#F"
           id="use198"
           x="0"
           y="0"
           width="100%"
           height="100%" />
        <use
           transform="matrix(0.05,0,0,0.05,9,0)"
           xlink:href="#r"
           id="use200"
           x="0"
           y="0"
           width="100%"
           height="100%" />
        <use
           transform="matrix(0.05,0,0,0.05,19,0)"
           xlink:href="#K"
           id="use202"
           x="0"
           y="0"
           width="100%"
           height="100%" />
        <use
           transform="matrix(0.05,0,0,0.05,28,0)"
           xlink:href="#r"
           id="use204"
           x="0"
           y="0"
           width="100%"
           height="100%" />
      </g>
      <g
         id="i">
        <use
           transform="scale(0.05,0.05)"
           xlink:href="#y"
           id="use207"
           x="0"
           y="0"
           width="100%"
           height="100%" />
        <use
           transform="matrix(0.05,0,0,0.05,12,0)"
           xlink:href="#A"
           id="use209"
           x="0"
           y="0"
           width="100%"
           height="100%" />
        <use
           transform="matrix(0.05,0,0,0.05,22,0)"
           xlink:href="#C"
           id="use211"
           x="0"
           y="0"
           width="100%"
           height="100%" />
        <use
           transform="matrix(0.05,0,0,0.05,27,0)"
           xlink:href="#A"
           id="use213"
           x="0"
           y="0"
           width="100%"
           height="100%" />
        <use
           transform="matrix(0.05,0,0,0.05,37,0)"
           xlink:href="#t"
           id="use215"
           x="0"
           y="0"
           width="100%"
           height="100%" />
      </g>
      <g
         id="j">
        <use
           transform="scale(0.05,0.05)"
           xlink:href="#x"
           id="use218"
           x="0"
           y="0"
           width="100%"
           height="100%" />
        <use
           transform="matrix(0.05,0,0,0.05,5.95,0)"
           xlink:href="#H"
           id="use220"
           x="0"
           y="0"
           width="100%"
           height="100%" />
        <use
           transform="matrix(0.05,0,0,0.05,17.95,0)"
           xlink:href="#C"
           id="use222"
           x="0"
           y="0"
           width="100%"
           height="100%" />
        <use
           transform="matrix(0.05,0,0,0.05,22.95,0)"
           xlink:href="#I"
           id="use224"
           x="0"
           y="0"
           width="100%"
           height="100%" />
        <use
           transform="matrix(0.05,0,0,0.05,32.95,0)"
           xlink:href="#J"
           id="use226"
           x="0"
           y="0"
           width="100%"
           height="100%" />
        <use
           transform="matrix(0.05,0,0,0.05,42.95,0)"
           xlink:href="#A"
           id="use228"
           x="0"
           y="0"
           width="100%"
           height="100%" />
        <use
           transform="matrix(0.05,0,0,0.05,52.95,0)"
           xlink:href="#E"
           id="use230"
           x="0"
           y="0"
           width="100%"
           height="100%" />
        <use
           transform="matrix(0.05,0,0,0.05,62.95,0)"
           xlink:href="#C"
           id="use232"
           x="0"
           y="0"
           width="100%"
           height="100%" />
        <use
           transform="matrix(0.05,0,0,0.05,67.95,0)"
           xlink:href="#B"
           id="use234"
           x="0"
           y="0"
           width="100%"
           height="100%" />
      </g>
      <path
         d="m 148,-710 774,-401 c -7,66 20,153 -36,179 -167,76 -324,169 -492,246 -14,7 -30,10 -47,14 33,7 63,18 90,31 l 449,227 c 58,17 29,113 36,180 l -774,-402 0,-74"
         id="L"
         inkscape:connector-curvature="0"
         style="fill:#ffffff" />
      <path
         d="m 387,-805 c 45,-1 103,5 133,-9 15,-6 30,-18 43,-33 l 477,-540 c 28,-29 44,-46 95,-46 l 165,0 -546,617 c -26,27 -46,49 -79,65 43,14 65,39 93,72 L 1338,0 c -92,-7 -205,17 -256,-41 L 587,-610 c -25,-30 -54,-46 -112,-46 l -88,0 0,656 -193,0 0,-1433 193,0 0,628"
         id="M"
         inkscape:connector-curvature="0"
         style="fill:#ffffff" />
      <path
         d="M 1038,-507 C 1038,-186 874,14 556,14 238,14 72,-187 72,-507 c 0,-248 107,-410 284,-485 60,-25 126,-37 200,-37 317,0 482,201 482,522 z m -782,1 c 0,225 80,381 300,381 213,0 298,-159 298,-381 0,-223 -84,-383 -298,-383 -221,0 -300,158 -300,383"
         id="N"
         inkscape:connector-curvature="0"
         style="fill:#ffffff" />
      <path
         d="M 698,-76 C 644,-24 553,16 453,16 291,17 204,-80 204,-244 l 0,-620 c -58,-9 -160,26 -160,-39 l 0,-71 166,-21 41,-313 c 4,-50 80,-30 131,-34 l 0,349 290,0 0,129 -290,0 0,608 c -2,78 40,125 111,126 60,2 88,-33 128,-48 9,0 18,6 25,17"
         id="O"
         inkscape:connector-curvature="0"
         style="fill:#ffffff" />
      <path
         d="m 344,-1473 0,1473 -178,0 0,-1473 178,0"
         id="P"
         inkscape:connector-curvature="0"
         style="fill:#ffffff" />
      <path
         d="m 344,-1013 0,1013 -178,0 0,-1013 178,0 z m -88,-446 c 77,0 128,52 128,128 0,75 -52,126 -128,126 -75,0 -126,-51 -126,-126 0,-76 50,-128 126,-128"
         id="Q"
         inkscape:connector-curvature="0"
         style="fill:#ffffff" />
      <path
         d="m 598,-887 c -125,2 -207,68 -274,141 l 0,746 -178,0 0,-1013 c 60,6 147,-22 154,37 l 14,110 c 82,-87 177,-163 336,-163 232,0 339,151 339,384 l 0,645 -178,0 0,-645 c 0,-149 -65,-244 -213,-242"
         id="R"
         inkscape:connector-curvature="0"
         style="fill:#ffffff" />
      <path
         d="m 238,-234 c 7,-66 -20,-154 36,-180 166,-76 322,-168 490,-245 14,-6 30,-10 47,-13 -34,-8 -61,-18 -88,-32 L 274,-932 c -58,-17 -29,-112 -36,-179 l 773,401 0,74"
         id="S"
         inkscape:connector-curvature="0"
         style="fill:#ffffff" />
      <g
         id="k">
        <use
           transform="scale(0.01111111,0.01111111)"
           xlink:href="#L"
           id="use245"
           x="0"
           y="0"
           width="100%"
           height="100%" />
        <use
           transform="matrix(0.01111111,0,0,0.01111111,12.888889,0)"
           xlink:href="#M"
           id="use247"
           x="0"
           y="0"
           width="100%"
           height="100%" />
        <use
           transform="matrix(0.01111111,0,0,0.01111111,27.622222,0)"
           xlink:href="#N"
           id="use249"
           x="0"
           y="0"
           width="100%"
           height="100%" />
        <use
           transform="matrix(0.01111111,0,0,0.01111111,39.977778,0)"
           xlink:href="#O"
           id="use251"
           x="0"
           y="0"
           width="100%"
           height="100%" />
        <use
           transform="matrix(0.01111111,0,0,0.01111111,48.266667,0)"
           xlink:href="#P"
           id="use253"
           x="0"
           y="0"
           width="100%"
           height="100%" />
        <use
           transform="matrix(0.01111111,0,0,0.01111111,53.955556,0)"
           xlink:href="#Q"
           id="use255"
           x="0"
           y="0"
           width="100%"
           height="100%" />
        <use
           transform="matrix(0.01111111,0,0,0.01111111,59.644444,0)"
           xlink:href="#R"
           id="use257"
           x="0"
           y="0"
           width="100%"
           height="100%" />
        <use
           transform="matrix(0.01111111,0,0,0.01111111,72,0)"
           xlink:href="#S"
           id="use259"
           x="0"
           y="0"
           width="100%"
           height="100%" />
      </g>
      <path
         d="m 338,-1150 c 4,31 6,65 6,97 l 0,1053 -170,0 0,-1433 c 59,2 132,-6 183,5 10,2 18,13 27,28 l 495,882 c 19,31 31,68 45,104 14,-38 27,-71 46,-105 l 485,-881 c 25,-58 137,-23 210,-33 l 0,1433 -170,0 c 2,-381 -5,-772 4,-1147 l -491,896 c -27,62 -134,61 -168,0"
         id="T"
         inkscape:connector-curvature="0"
         style="fill:#ffffff" />
      <path
         d="m 443,299 c -13,26 -25,44 -64,44 l -132,0 185,-402 -418,-954 154,0 c 30,-1 46,18 55,37 95,228 197,450 287,682 6,14 8,30 11,45 10,-32 18,-60 30,-90 l 263,-637 c 18,-60 124,-30 194,-37"
         id="U"
         inkscape:connector-curvature="0"
         style="fill:#ffffff" />
      <g
         id="l">
        <use
           transform="scale(0.01111111,0.01111111)"
           xlink:href="#T"
           id="use264"
           x="0"
           y="0"
           width="100%"
           height="100%" />
        <use
           transform="matrix(0.01111111,0,0,0.01111111,20.444444,0)"
           xlink:href="#U"
           id="use266"
           x="0"
           y="0"
           width="100%"
           height="100%" />
      </g>
      <path
         d="m 537,-1031 c 235,0 353,147 353,383 L 890,0 C 832,-5 761,17 748,-42 l -20,-94 C 637,-55 545,19 375,16 200,13 92,-76 92,-253 c 0,-184 160,-243 332,-285 79,-19 176,-28 291,-31 12,-184 -31,-318 -200,-318 -113,0 -181,45 -243,91 -36,26 -82,14 -99,-17 l -32,-57 c 101,-96 215,-161 396,-161 z m -274,770 c 0,103 62,152 165,152 140,0 216,-64 287,-136 l 0,-211 c -141,4 -258,19 -349,60 -60,27 -103,62 -103,135"
         id="V"
         inkscape:connector-curvature="0"
         style="fill:#ffffff" />
      <path
         d="m 550,-887 c -107,0 -172,65 -226,132 l 0,755 -178,0 0,-1013 c 60,6 147,-22 154,37 l 13,104 c 69,-80 148,-156 287,-157 148,-1 223,92 258,211 51,-126 153,-211 323,-211 232,0 338,149 338,384 l 0,645 -178,0 0,-645 c 1,-148 -62,-242 -203,-242 -142,0 -218,94 -218,242 l 0,645 -178,0 0,-645 c 1,-149 -54,-242 -192,-242"
         id="W"
         inkscape:connector-curvature="0"
         style="fill:#ffffff" />
      <path
         d="M 954,-142 C 850,-8 572,61 364,-22 180,-96 74,-268 74,-527 c 0,-234 108,-389 275,-463 59,-26 125,-39 198,-39 273,0 420,174 420,453 0,48 -2,70 -43,70 l -674,0 c 8,226 98,375 322,380 114,2 191,-38 258,-82 70,-46 94,37 124,66 z M 807,-617 c -5,-171 -86,-278 -256,-281 -181,-3 -273,116 -295,281 l 551,0"
         id="X"
         inkscape:connector-curvature="0"
         style="fill:#ffffff" />
      <g
         id="m">
        <use
           transform="scale(0.01111111,0.01111111)"
           xlink:href="#R"
           id="use272"
           x="0"
           y="0"
           width="100%"
           height="100%" />
        <use
           transform="matrix(0.01111111,0,0,0.01111111,12.355556,0)"
           xlink:href="#V"
           id="use274"
           x="0"
           y="0"
           width="100%"
           height="100%" />
        <use
           transform="matrix(0.01111111,0,0,0.01111111,23.622222,0)"
           xlink:href="#W"
           id="use276"
           x="0"
           y="0"
           width="100%"
           height="100%" />
        <use
           transform="matrix(0.01111111,0,0,0.01111111,41.866667,0)"
           xlink:href="#X"
           id="use278"
           x="0"
           y="0"
           width="100%"
           height="100%" />
      </g>
      <path
         d="m 409,-112 c 121,-3 207,-52 207,-167 0,-134 -157,-142 -264,-181 -133,-48 -263,-98 -263,-275 0,-197 153,-290 360,-294 139,-3 243,49 317,118 -26,35 -46,114 -111,76 -53,-31 -114,-63 -202,-61 -108,3 -195,44 -195,147 0,129 158,136 262,175 128,48 263,93 263,264 C 783,-89 627,12 400,16 255,19 139,-39 62,-107 c 27,-41 57,-128 128,-81 57,38 118,78 219,76"
         id="Y"
         inkscape:connector-curvature="0"
         style="fill:#ffffff" />
      <g
         id="n">
        <use
           transform="scale(0.01111111,0.01111111)"
           xlink:href="#Q"
           id="use282"
           x="0"
           y="0"
           width="100%"
           height="100%" />
        <use
           transform="matrix(0.01111111,0,0,0.01111111,5.6888889,0)"
           xlink:href="#Y"
           id="use284"
           x="0"
           y="0"
           width="100%"
           height="100%" />
      </g>
      <path
         d="m 584,-856 c -148,6 -210,94 -260,211 l 0,645 -178,0 0,-1013 c 62,7 151,-25 157,49 l 12,158 c 66,-138 184,-259 384,-216 23,5 44,16 63,27 l -23,133 c -5,17 -15,25 -31,25 -36,0 -71,-21 -124,-19"
         id="Z"
         inkscape:connector-curvature="0"
         style="fill:#ffffff" />
      <path
         d="M 212,15 C 136,15 88,-34 88,-110 c 0,-76 48,-126 124,-126 76,0 125,50 125,126 0,77 -49,125 -125,125"
         id="aa"
         inkscape:connector-curvature="0"
         style="fill:#ffffff" />
      <g
         id="o">
        <use
           transform="scale(0.01111111,0.01111111)"
           xlink:href="#M"
           id="use289"
           x="0"
           y="0"
           width="100%"
           height="100%" />
        <use
           transform="matrix(0.01111111,0,0,0.01111111,15.133333,0)"
           xlink:href="#V"
           id="use291"
           x="0"
           y="0"
           width="100%"
           height="100%" />
        <use
           transform="matrix(0.01111111,0,0,0.01111111,26.4,0)"
           xlink:href="#Z"
           id="use293"
           x="0"
           y="0"
           width="100%"
           height="100%" />
        <use
           transform="matrix(0.01111111,0,0,0.01111111,35.355556,0)"
           xlink:href="#P"
           id="use295"
           x="0"
           y="0"
           width="100%"
           height="100%" />
        <use
           transform="matrix(0.01111111,0,0,0.01111111,41.044444,0)"
           xlink:href="#aa"
           id="use297"
           x="0"
           y="0"
           width="100%"
           height="100%" />
      </g>
    </defs>
  </g>
</svg>
