<?xml version="1.0" encoding="UTF-8" standalone="no"?>
<svg
   xmlns:dc="http://purl.org/dc/elements/1.1/"
   xmlns:cc="http://creativecommons.org/ns#"
   xmlns:rdf="http://www.w3.org/1999/02/22-rdf-syntax-ns#"
   xmlns:svg="http://www.w3.org/2000/svg"
   xmlns="http://www.w3.org/2000/svg"
   xmlns:xlink="http://www.w3.org/1999/xlink"
   xmlns:sodipodi="http://sodipodi.sourceforge.net/DTD/sodipodi-0.dtd"
   xmlns:inkscape="http://www.inkscape.org/namespaces/inkscape"
   width="825"
   height="725"
   id="svg2"
   version="1.1"
   inkscape:version="0.91 r13725"
   sodipodi:docname="gRpc - People0.svg">
  <metadata
     id="metadata162">
    <rdf:RDF>
      <cc:Work
         rdf:about="">
        <dc:format>image/svg+xml</dc:format>
        <dc:type
           rdf:resource="http://purl.org/dc/dcmitype/StillImage" />
        <dc:title></dc:title>
      </cc:Work>
    </rdf:RDF>
  </metadata>
  <defs
     id="defs160" />
  <sodipodi:namedview
     pagecolor="#ffffff"
     bordercolor="#666666"
     borderopacity="1"
     objecttolerance="10"
     gridtolerance="10"
     guidetolerance="10"
     inkscape:pageopacity="0"
     inkscape:pageshadow="2"
     inkscape:window-width="640"
     inkscape:window-height="480"
     id="namedview158"
     showgrid="false"
     fit-margin-top="0"
     fit-margin-left="0"
     fit-margin-right="0"
     fit-margin-bottom="0"
     inkscape:zoom="0.2119291"
     inkscape:cx="329.92021"
     inkscape:cy="185.96002"
     inkscape:window-x="0"
     inkscape:window-y="24"
     inkscape:window-maximized="0"
     inkscape:current-layer="svg2" />
  <g
     id="g4"
     transform="translate(-17.75,-17.75)">
    <path
       d="m 20.25,20.25 820,0 0,720 -820,0 z"
       id="path6"
       inkscape:connector-curvature="0"
       style="fill:none;stroke:#b92fd1;stroke-width:5" />
    <use
       xlink:href="#a"
       transform="translate(387.34691,43.846914)"
       id="use8"
       x="0"
       y="0"
       width="100%"
       height="100%" />
    <path
       d="m 740,320 c 0,10.9 -8.85,19.75 -19.75,19.75 -10.9,0 -19.75,-8.85 -19.75,-19.75 0,-10.9 8.84,-19.75 19.75,-19.75 10.9,0 19.75,8.84 19.75,19.75 z"
       id="path10"
       inkscape:connector-curvature="0"
       style="fill:#47a8f5;stroke:#ffffff;stroke-width:2" />
    <path
       d="m 680.25,300.25 80,0 0,158 -80,0 z"
       id="path12"
       inkscape:connector-curvature="0"
       style="fill:none" />
    <path
       d="m 720.25,339.75 0,55.3 40,63.2 m -40,-63.2 -40,63.2 m 0,-98.75 80,0"
       id="path14"
       inkscape:connector-curvature="0"
       style="fill:none;stroke:#ffffff;stroke-width:2" />
    <use
       xlink:href="#b"
       transform="translate(657.39691,472.84691)"
       id="use16"
       x="0"
       y="0"
       width="100%"
       height="100%" />
    <use
       xlink:href="#c"
       transform="translate(694.29691,472.84691)"
       id="use18"
       x="0"
       y="0"
       width="100%"
       height="100%" />
    <path
       d="m 200,100 c 0,10.9 -8.85,19.75 -19.75,19.75 -10.9,0 -19.75,-8.85 -19.75,-19.75 0,-10.9 8.84,-19.75 19.75,-19.75 10.9,0 19.75,8.84 19.75,19.75 z"
       id="path20"
       inkscape:connector-curvature="0"
       style="fill:#9ecd67;stroke:#ffffff;stroke-width:2" />
    <path
       d="m 140.25,80.25 80,0 0,158 -80,0 z"
       id="path22"
       inkscape:connector-curvature="0"
       style="fill:none" />
    <path
       d="m 180.25,119.75 0,55.3 40,63.2 m -40,-63.2 -40,63.2 m 0,-98.75 80,0"
       id="path24"
       inkscape:connector-curvature="0"
       style="fill:none;stroke:#ffffff;stroke-width:2" />
    <use
       xlink:href="#d"
       transform="translate(111.29691,252.84691)"
       id="use26"
       x="0"
       y="0"
       width="100%"
       height="100%" />
    <use
       xlink:href="#e"
       transform="translate(175.29691,252.84691)"
       id="use28"
       x="0"
       y="0"
       width="100%"
       height="100%" />
    <path
       d="m 200,540 c 0,10.9 -8.85,19.75 -19.75,19.75 -10.9,0 -19.75,-8.85 -19.75,-19.75 0,-10.9 8.84,-19.75 19.75,-19.75 10.9,0 19.75,8.84 19.75,19.75 z"
       id="path30"
       inkscape:connector-curvature="0"
       style="fill:#ff7549;stroke:#ffffff;stroke-width:2" />
    <path
       d="m 140.25,520.25 80,0 0,158 -80,0 z"
       id="path32"
       inkscape:connector-curvature="0"
       style="fill:none" />
    <path
       d="m 180.25,559.75 0,55.3 40,63.2 m -40,-63.2 -40,63.2 m 0,-98.75 80,0"
       id="path34"
       inkscape:connector-curvature="0"
       style="fill:none;stroke:#ffffff;stroke-width:2" />
    <g
       id="g36">
      <use
         xlink:href="#f"
         transform="translate(119.32191,692.84691)"
         id="use38"
         x="0"
         y="0"
         width="100%"
         height="100%" />
      <use
         xlink:href="#e"
         transform="translate(167.27191,692.84691)"
         id="use40"
         x="0"
         y="0"
         width="100%"
         height="100%" />
    </g>
    <defs
       id="defs42">
      <path
         d="m 212,-179 c -10,-28 -35,-45 -73,-45 -59,0 -87,40 -87,99 0,60 29,101 89,101 43,0 62,-24 78,-52 l 27,14 C 228,-24 195,4 139,4 59,4 22,-46 18,-125 c -6,-104 99,-153 187,-111 19,9 31,26 39,46"
         id="g"
         inkscape:connector-curvature="0"
         style="fill:#ffffff" />
      <path
         d="m 24,0 0,-261 32,0 0,261 -32,0"
         id="h"
         inkscape:connector-curvature="0"
         style="fill:#ffffff" />
      <path
         d="M 141,-36 C 126,-15 110,5 73,4 37,3 15,-17 15,-53 c -1,-64 63,-63 125,-63 3,-35 -9,-54 -41,-54 -24,1 -41,7 -42,31 l -33,-3 c 5,-37 33,-52 76,-52 45,0 72,20 72,64 l 0,82 c -1,20 7,32 28,27 l 0,20 C 169,8 139,-3 141,-36 Z M 48,-53 c 0,20 12,33 32,33 41,-3 63,-29 60,-74 -43,2 -92,-5 -92,41"
         id="i"
         inkscape:connector-curvature="0"
         style="fill:#ffffff" />
      <path
         d="m 135,-143 c -3,-34 -86,-38 -87,0 15,53 115,12 119,90 4,78 -150,74 -157,8 l 28,-5 c 4,36 97,45 98,0 -10,-56 -113,-15 -118,-90 -4,-57 82,-63 122,-42 12,7 21,19 24,35"
         id="j"
         inkscape:connector-curvature="0"
         style="fill:#ffffff" />
      <path
         d="M 114,-163 C 36,-179 61,-72 57,0 l -32,0 -1,-190 30,0 c 1,12 -1,29 2,39 6,-27 23,-49 58,-41 l 0,29"
         id="k"
         inkscape:connector-curvature="0"
         style="fill:#ffffff" />
      <path
         d="m 100,-194 c 62,-1 85,37 85,99 1,63 -27,99 -86,99 -59,0 -83,-39 -84,-99 0,-66 28,-99 85,-99 z m -1,174 c 44,1 53,-31 53,-75 0,-43 -8,-75 -51,-75 -43,0 -53,32 -53,75 0,43 10,74 51,75"
         id="l"
         inkscape:connector-curvature="0"
         style="fill:#ffffff" />
      <path
         d="m 210,-169 c -67,3 -38,105 -44,169 l -31,0 0,-121 c 0,-29 -5,-50 -35,-48 -66,4 -38,104 -44,169 l -31,0 -1,-190 30,0 c 1,10 -1,24 2,32 10,-44 99,-50 107,0 11,-21 27,-35 58,-36 85,-2 47,119 55,194 l -31,0 0,-121 c 0,-29 -5,-49 -35,-48"
         id="m"
         inkscape:connector-curvature="0"
         style="fill:#ffffff" />
      <g
         id="a">
        <use
           transform="scale(0.05,0.05)"
           xlink:href="#g"
           id="use52"
           x="0"
           y="0"
           width="100%"
           height="100%" />
        <use
           transform="matrix(0.05,0,0,0.05,12.95,0)"
           xlink:href="#h"
           id="use54"
           x="0"
           y="0"
           width="100%"
           height="100%" />
        <use
           transform="matrix(0.05,0,0,0.05,16.9,0)"
           xlink:href="#i"
           id="use56"
           x="0"
           y="0"
           width="100%"
           height="100%" />
        <use
           transform="matrix(0.05,0,0,0.05,26.9,0)"
           xlink:href="#j"
           id="use58"
           x="0"
           y="0"
           width="100%"
           height="100%" />
        <use
           transform="matrix(0.05,0,0,0.05,35.9,0)"
           xlink:href="#j"
           id="use60"
           x="0"
           y="0"
           width="100%"
           height="100%" />
        <use
           transform="matrix(0.05,0,0,0.05,44.9,0)"
           xlink:href="#k"
           id="use62"
           x="0"
           y="0"
           width="100%"
           height="100%" />
        <use
           transform="matrix(0.05,0,0,0.05,50.85,0)"
           xlink:href="#l"
           id="use64"
           x="0"
           y="0"
           width="100%"
           height="100%" />
        <use
           transform="matrix(0.05,0,0,0.05,60.85,0)"
           xlink:href="#l"
           id="use66"
           x="0"
           y="0"
           width="100%"
           height="100%" />
        <use
           transform="matrix(0.05,0,0,0.05,70.85,0)"
           xlink:href="#m"
           id="use68"
           x="0"
           y="0"
           width="100%"
           height="100%" />
      </g>
      <path
         d="m 194,0 -99,-120 -32,25 0,95 -33,0 0,-248 33,0 0,124 119,-124 40,0 -105,108 119,140 -42,0"
         id="n"
         inkscape:connector-curvature="0"
         style="fill:#ffffff" />
      <g
         id="b">
        <use
           transform="scale(0.05,0.05)"
           xlink:href="#n"
           id="use72"
           x="0"
           y="0"
           width="100%"
           height="100%" />
        <use
           transform="matrix(0.05,0,0,0.05,12,0)"
           xlink:href="#i"
           id="use74"
           x="0"
           y="0"
           width="100%"
           height="100%" />
        <use
           transform="matrix(0.05,0,0,0.05,22,0)"
           xlink:href="#k"
           id="use76"
           x="0"
           y="0"
           width="100%"
           height="100%" />
        <use
           transform="matrix(0.05,0,0,0.05,27.95,0)"
           xlink:href="#h"
           id="use78"
           x="0"
           y="0"
           width="100%"
           height="100%" />
      </g>
      <path
         d="M 87,75 C 49,33 22,-17 22,-94 c 0,-76 28,-126 65,-167 l 31,0 c -38,41 -64,92 -64,168 0,76 26,127 64,168 l -31,0"
         id="o"
         inkscape:connector-curvature="0"
         style="fill:#ffffff" />
      <path
         d="m 30,-248 c 87,1 191,-15 191,75 0,78 -77,80 -158,76 l 0,97 -33,0 0,-248 z m 33,125 c 57,0 124,11 124,-50 0,-59 -68,-47 -124,-48 l 0,98"
         id="p"
         inkscape:connector-curvature="0"
         style="fill:#ffffff" />
      <path
         d="m 101,-234 c -31,-9 -42,10 -38,44 l 38,0 0,23 -38,0 0,167 -31,0 0,-167 -27,0 0,-23 27,0 c -7,-52 17,-82 69,-68 l 0,24"
         id="q"
         inkscape:connector-curvature="0"
         style="fill:#ffffff" />
      <path
         d="m 100,-194 c 63,0 86,42 84,106 l -135,0 c 0,40 14,67 53,68 26,1 43,-12 49,-29 l 28,8 C 168,-13 142,4 102,4 44,4 14,-33 15,-96 c 1,-61 26,-98 85,-98 z m 52,81 c 6,-60 -76,-77 -97,-28 -3,7 -6,17 -6,28 l 103,0"
         id="r"
         inkscape:connector-curvature="0"
         style="fill:#ffffff" />
      <path
         d="m 33,-261 c 38,41 65,92 65,168 C 98,-17 71,34 33,75 L 2,75 C 39,34 66,-17 66,-93 66,-169 39,-220 2,-261 l 31,0"
         id="s"
         inkscape:connector-curvature="0"
         style="fill:#ffffff" />
      <g
         id="c">
        <use
           transform="scale(0.05,0.05)"
           xlink:href="#o"
           id="use86"
           x="0"
           y="0"
           width="100%"
           height="100%" />
        <use
           transform="matrix(0.05,0,0,0.05,5.95,0)"
           xlink:href="#p"
           id="use88"
           x="0"
           y="0"
           width="100%"
           height="100%" />
        <use
           transform="matrix(0.05,0,0,0.05,17.95,0)"
           xlink:href="#k"
           id="use90"
           x="0"
           y="0"
           width="100%"
           height="100%" />
        <use
           transform="matrix(0.05,0,0,0.05,23.9,0)"
           xlink:href="#l"
           id="use92"
           x="0"
           y="0"
           width="100%"
           height="100%" />
        <use
           transform="matrix(0.05,0,0,0.05,33.9,0)"
           xlink:href="#q"
           id="use94"
           x="0"
           y="0"
           width="100%"
           height="100%" />
        <use
           transform="matrix(0.05,0,0,0.05,38.9,0)"
           xlink:href="#r"
           id="use96"
           x="0"
           y="0"
           width="100%"
           height="100%" />
        <use
           transform="matrix(0.05,0,0,0.05,48.9,0)"
           xlink:href="#j"
           id="use98"
           x="0"
           y="0"
           width="100%"
           height="100%" />
        <use
           transform="matrix(0.05,0,0,0.05,57.9,0)"
           xlink:href="#j"
           id="use100"
           x="0"
           y="0"
           width="100%"
           height="100%" />
        <use
           transform="matrix(0.05,0,0,0.05,66.9,0)"
           xlink:href="#l"
           id="use102"
           x="0"
           y="0"
           width="100%"
           height="100%" />
        <use
           transform="matrix(0.05,0,0,0.05,76.9,0)"
           xlink:href="#k"
           id="use104"
           x="0"
           y="0"
           width="100%"
           height="100%" />
        <use
           transform="matrix(0.05,0,0,0.05,82.85,0)"
           xlink:href="#s"
           id="use106"
           x="0"
           y="0"
           width="100%"
           height="100%" />
      </g>
      <path
         d="M 153,-248 C 145,-148 188,4 80,4 36,3 13,-21 6,-62 l 32,-5 c 4,25 16,42 43,43 27,0 39,-20 39,-49 l 0,-147 -48,0 0,-28 81,0"
         id="t"
         inkscape:connector-curvature="0"
         style="fill:#ffffff" />
      <path
         d="M 106,-169 C 34,-169 62,-67 57,0 l -32,0 0,-261 32,0 -1,103 c 12,-21 28,-36 61,-36 89,0 53,116 60,194 l -32,0 0,-121 c 2,-32 -8,-49 -39,-48"
         id="u"
         inkscape:connector-curvature="0"
         style="fill:#ffffff" />
      <path
         d="m 117,-194 c 89,-4 53,116 60,194 l -32,0 0,-121 c 0,-31 -8,-49 -39,-48 -72,2 -44,102 -49,169 l -32,0 -1,-190 30,0 c 1,10 -1,24 2,32 11,-22 29,-35 61,-36"
         id="v"
         inkscape:connector-curvature="0"
         style="fill:#ffffff" />
      <g
         id="d">
        <use
           transform="scale(0.05,0.05)"
           xlink:href="#t"
           id="use112"
           x="0"
           y="0"
           width="100%"
           height="100%" />
        <use
           transform="matrix(0.05,0,0,0.05,9,0)"
           xlink:href="#l"
           id="use114"
           x="0"
           y="0"
           width="100%"
           height="100%" />
        <use
           transform="matrix(0.05,0,0,0.05,19,0)"
           xlink:href="#u"
           id="use116"
           x="0"
           y="0"
           width="100%"
           height="100%" />
        <use
           transform="matrix(0.05,0,0,0.05,29,0)"
           xlink:href="#i"
           id="use118"
           x="0"
           y="0"
           width="100%"
           height="100%" />
        <use
           transform="matrix(0.05,0,0,0.05,39,0)"
           xlink:href="#v"
           id="use120"
           x="0"
           y="0"
           width="100%"
           height="100%" />
        <use
           transform="matrix(0.05,0,0,0.05,49,0)"
           xlink:href="#v"
           id="use122"
           x="0"
           y="0"
           width="100%"
           height="100%" />
      </g>
      <path
         d="m 185,-189 c -5,-48 -123,-54 -124,2 14,75 158,14 163,119 C 227,10 103,19 49,-13 32,-23 21,-39 16,-59 l 33,-7 c 5,56 141,63 141,-1 0,-78 -155,-14 -162,-118 -5,-82 145,-84 179,-34 5,7 8,16 11,25"
         id="w"
         inkscape:connector-curvature="0"
         style="fill:#ffffff" />
      <path
         d="m 59,-47 c -2,24 18,29 38,22 l 0,24 C 64,9 27,4 27,-40 l 0,-127 -22,0 0,-23 24,0 9,-43 21,0 0,43 35,0 0,23 -35,0 0,120"
         id="x"
         inkscape:connector-curvature="0"
         style="fill:#ffffff" />
      <path
         d="M 84,4 C -5,8 30,-112 23,-190 l 32,0 0,120 c 0,31 7,50 39,49 72,-2 45,-101 50,-169 l 31,0 1,190 -30,0 c -1,-10 1,-25 -2,-33 -11,22 -28,36 -60,37"
         id="y"
         inkscape:connector-curvature="0"
         style="fill:#ffffff" />
      <path
         d="m 85,-194 c 31,0 48,13 60,33 l -1,-100 32,0 1,261 -30,0 c -2,-10 0,-23 -3,-31 C 134,-8 116,4 85,4 32,4 16,-35 15,-94 c 0,-66 23,-100 70,-100 z m 9,24 c -40,0 -46,34 -46,75 0,40 6,74 45,74 42,0 51,-32 51,-76 0,-42 -9,-74 -50,-73"
         id="z"
         inkscape:connector-curvature="0"
         style="fill:#ffffff" />
      <g
         id="e">
        <use
           transform="scale(0.05,0.05)"
           xlink:href="#o"
           id="use129"
           x="0"
           y="0"
           width="100%"
           height="100%" />
        <use
           transform="matrix(0.05,0,0,0.05,5.95,0)"
           xlink:href="#w"
           id="use131"
           x="0"
           y="0"
           width="100%"
           height="100%" />
        <use
           transform="matrix(0.05,0,0,0.05,17.95,0)"
           xlink:href="#x"
           id="use133"
           x="0"
           y="0"
           width="100%"
           height="100%" />
        <use
           transform="matrix(0.05,0,0,0.05,22.95,0)"
           xlink:href="#y"
           id="use135"
           x="0"
           y="0"
           width="100%"
           height="100%" />
        <use
           transform="matrix(0.05,0,0,0.05,32.95,0)"
           xlink:href="#z"
           id="use137"
           x="0"
           y="0"
           width="100%"
           height="100%" />
        <use
           transform="matrix(0.05,0,0,0.05,42.95,0)"
           xlink:href="#r"
           id="use139"
           x="0"
           y="0"
           width="100%"
           height="100%" />
        <use
           transform="matrix(0.05,0,0,0.05,52.95,0)"
           xlink:href="#v"
           id="use141"
           x="0"
           y="0"
           width="100%"
           height="100%" />
        <use
           transform="matrix(0.05,0,0,0.05,62.95,0)"
           xlink:href="#x"
           id="use143"
           x="0"
           y="0"
           width="100%"
           height="100%" />
        <use
           transform="matrix(0.05,0,0,0.05,67.95,0)"
           xlink:href="#s"
           id="use145"
           x="0"
           y="0"
           width="100%"
           height="100%" />
      </g>
      <g
         id="f">
        <use
           transform="scale(0.05,0.05)"
           xlink:href="#p"
           id="use148"
           x="0"
           y="0"
           width="100%"
           height="100%" />
        <use
           transform="matrix(0.05,0,0,0.05,12,0)"
           xlink:href="#r"
           id="use150"
           x="0"
           y="0"
           width="100%"
           height="100%" />
        <use
           transform="matrix(0.05,0,0,0.05,22,0)"
           xlink:href="#x"
           id="use152"
           x="0"
           y="0"
           width="100%"
           height="100%" />
        <use
           transform="matrix(0.05,0,0,0.05,27,0)"
           xlink:href="#r"
           id="use154"
           x="0"
           y="0"
           width="100%"
           height="100%" />
        <use
           transform="matrix(0.05,0,0,0.05,37,0)"
           xlink:href="#k"
           id="use156"
           x="0"
           y="0"
           width="100%"
           height="100%" />
      </g>
    </defs>
  </g>
</svg>
