<?xml version="1.0" encoding="UTF-8" standalone="no"?>
<svg
   xmlns:dc="http://purl.org/dc/elements/1.1/"
   xmlns:cc="http://creativecommons.org/ns#"
   xmlns:rdf="http://www.w3.org/1999/02/22-rdf-syntax-ns#"
   xmlns:svg="http://www.w3.org/2000/svg"
   xmlns="http://www.w3.org/2000/svg"
   xmlns:xlink="http://www.w3.org/1999/xlink"
   xmlns:sodipodi="http://sodipodi.sourceforge.net/DTD/sodipodi-0.dtd"
   xmlns:inkscape="http://www.inkscape.org/namespaces/inkscape"
   width="825"
   height="725"
   id="svg2"
   version="1.1"
   inkscape:version="0.91 r13725"
   sodipodi:docname="gRpc - People5.svg">
  <metadata
     id="metadata270">
    <rdf:RDF>
      <cc:Work
         rdf:about="">
        <dc:format>image/svg+xml</dc:format>
        <dc:type
           rdf:resource="http://purl.org/dc/dcmitype/StillImage" />
        <dc:title></dc:title>
      </cc:Work>
    </rdf:RDF>
  </metadata>
  <defs
     id="defs268" />
  <sodipodi:namedview
     pagecolor="#ffffff"
     bordercolor="#666666"
     borderopacity="1"
     objecttolerance="10"
     gridtolerance="10"
     guidetolerance="10"
     inkscape:pageopacity="0"
     inkscape:pageshadow="2"
     inkscape:window-width="640"
     inkscape:window-height="480"
     id="namedview266"
     showgrid="false"
     fit-margin-top="0"
     fit-margin-left="0"
     fit-margin-right="0"
     fit-margin-bottom="0"
     inkscape:zoom="0.30477203"
     inkscape:cx="416.19005"
     inkscape:cy="362.5"
     inkscape:window-x="10"
     inkscape:window-y="34"
     inkscape:window-maximized="0"
     inkscape:current-layer="svg2" />
  <g
     id="g4"
     transform="translate(-15.28,-15.28)">
    <path
       d="m 17.78,17.78 820,0 0,720 -820,0 z"
       id="path6"
       inkscape:connector-curvature="0"
       style="fill:none;stroke:#b92fd1;stroke-width:5" />
    <use
       xlink:href="#a"
       transform="translate(385.90978,44.743778)"
       id="use8"
       x="0"
       y="0"
       width="100%"
       height="100%" />
    <path
       d="m 737.53,317.53 c 0,10.9 -8.84,19.75 -19.75,19.75 -10.9,0 -19.75,-8.84 -19.75,-19.75 0,-10.9 8.84,-19.75 19.75,-19.75 10.9,0 19.75,8.84 19.75,19.75 z"
       id="path10"
       inkscape:connector-curvature="0"
       style="fill:#47a8f5;stroke:#ffffff;stroke-width:2" />
    <path
       d="m 677.78,297.78 80,0 0,158 -80,0 z"
       id="path12"
       inkscape:connector-curvature="0"
       style="fill:none" />
    <path
       d="m 717.78,337.28 0,55.3 40,63.2 m -40,-63.2 -40,63.2 m 0,-98.75 80,0"
       id="path14"
       inkscape:connector-curvature="0"
       style="fill:none;stroke:#ffffff;stroke-width:2" />
    <use
       xlink:href="#b"
       transform="translate(655.69578,473.54378)"
       id="use16"
       x="0"
       y="0"
       width="100%"
       height="100%" />
    <use
       xlink:href="#c"
       transform="translate(692.41578,473.54378)"
       id="use18"
       x="0"
       y="0"
       width="100%"
       height="100%" />
    <use
       xlink:href="#d"
       transform="translate(673.04778,495.14378)"
       id="use20"
       x="0"
       y="0"
       width="100%"
       height="100%" />
    <use
       xlink:href="#e"
       transform="translate(714.62778,495.14378)"
       id="use22"
       x="0"
       y="0"
       width="100%"
       height="100%" />
    <path
       d="m 197.53,97.53 c 0,10.9 -8.84,19.75 -19.75,19.75 -10.9,0 -19.75,-8.84 -19.75,-19.75 0,-10.9 8.84,-19.75 19.75,-19.75 10.9,0 19.75,8.84 19.75,19.75 z"
       id="path24"
       inkscape:connector-curvature="0"
       style="fill:#9ecd67;stroke:#ffffff;stroke-width:2" />
    <path
       d="m 137.78,77.78 80,0 0,158 -80,0 z"
       id="path26"
       inkscape:connector-curvature="0"
       style="fill:none" />
    <path
       d="m 177.78,117.28 0,55.3 40,63.2 m -40,-63.2 -40,63.2 m 0,-98.75 80,0"
       id="path28"
       inkscape:connector-curvature="0"
       style="fill:none;stroke:#ffffff;stroke-width:2" />
    <use
       xlink:href="#f"
       transform="translate(110.82678,253.54378)"
       id="use30"
       x="0"
       y="0"
       width="100%"
       height="100%" />
    <use
       xlink:href="#g"
       transform="translate(171.45078,253.54378)"
       id="use32"
       x="0"
       y="0"
       width="100%"
       height="100%" />
    <use
       xlink:href="#d"
       transform="translate(139.40178,275.14378)"
       id="use34"
       x="0"
       y="0"
       width="100%"
       height="100%" />
    <use
       xlink:href="#h"
       transform="translate(180.98178,275.14378)"
       id="use36"
       x="0"
       y="0"
       width="100%"
       height="100%" />
    <path
       d="m 197.53,537.53 c 0,10.9 -8.84,19.75 -19.75,19.75 -10.9,0 -19.75,-8.84 -19.75,-19.75 0,-10.9 8.84,-19.75 19.75,-19.75 10.9,0 19.75,8.84 19.75,19.75 z"
       id="path38"
       inkscape:connector-curvature="0"
       style="fill:#ff7549;stroke:#ffffff;stroke-width:2" />
    <path
       d="m 137.78,517.78 80,0 0,158 -80,0 z"
       id="path40"
       inkscape:connector-curvature="0"
       style="fill:none" />
    <path
       d="m 177.78,557.28 0,55.3 40,63.2 m -40,-63.2 -40,63.2 m 0,-98.75 80,0"
       id="path42"
       inkscape:connector-curvature="0"
       style="fill:none;stroke:#ffffff;stroke-width:2" />
    <use
       xlink:href="#i"
       transform="translate(117.62178,693.54378)"
       id="use44"
       x="0"
       y="0"
       width="100%"
       height="100%" />
    <use
       xlink:href="#g"
       transform="translate(164.65578,693.54378)"
       id="use46"
       x="0"
       y="0"
       width="100%"
       height="100%" />
    <use
       xlink:href="#d"
       transform="translate(128.51178,715.14378)"
       id="use48"
       x="0"
       y="0"
       width="100%"
       height="100%" />
    <use
       xlink:href="#j"
       transform="translate(170.09178,715.14378)"
       id="use50"
       x="0"
       y="0"
       width="100%"
       height="100%" />
    <path
       d="m 367.78,237.78 120,0 0,223.32 -120,0 z"
       id="path52"
       inkscape:connector-curvature="0"
       style="fill:none" />
    <use
       xlink:href="#k"
       transform="translate(392.4,418.57778)"
       id="use54"
       x="0"
       y="0"
       width="100%"
       height="100%" />
    <path
       d="m 117.78,477.78 40,0 0,60 -40,0 z"
       id="path56"
       inkscape:connector-curvature="0"
       style="fill:none" />
    <use
       xlink:href="#l"
       transform="translate(133.35556,516.37778)"
       id="use58"
       x="0"
       y="0"
       width="100%"
       height="100%" />
    <path
       d="m 197.78,37.78 40,0 0,60 -40,0 z"
       id="path60"
       inkscape:connector-curvature="0"
       style="fill:none" />
    <use
       xlink:href="#l"
       transform="translate(213.35556,76.377778)"
       id="use62"
       x="0"
       y="0"
       width="100%"
       height="100%" />
    <path
       d="m 227.78,97.78 40,0 0,60 -40,0 z"
       id="path64"
       inkscape:connector-curvature="0"
       style="fill:none" />
    <use
       xlink:href="#l"
       transform="translate(243.35556,136.37778)"
       id="use66"
       x="0"
       y="0"
       width="100%"
       height="100%" />
    <path
       d="m 117.78,57.78 40,0 0,60 -40,0 z"
       id="path68"
       inkscape:connector-curvature="0"
       style="fill:none" />
    <use
       xlink:href="#l"
       transform="translate(133.35556,96.377778)"
       id="use70"
       x="0"
       y="0"
       width="100%"
       height="100%" />
    <path
       d="m 177.78,437.78 40,0 0,60 -40,0 z"
       id="path72"
       inkscape:connector-curvature="0"
       style="fill:none" />
    <use
       xlink:href="#l"
       transform="translate(193.35556,476.37778)"
       id="use74"
       x="0"
       y="0"
       width="100%"
       height="100%" />
    <path
       d="m 237.78,557.78 40,0 0,60 -40,0 z"
       id="path76"
       inkscape:connector-curvature="0"
       style="fill:none" />
    <g
       id="g78">
      <use
         xlink:href="#l"
         transform="translate(253.35556,596.37778)"
         id="use80"
         x="0"
         y="0"
         width="100%"
         height="100%" />
    </g>
    <path
       d="m 637.78,237.78 40,0 0,60 -40,0 z"
       id="path82"
       inkscape:connector-curvature="0"
       style="fill:none" />
    <g
       id="g84">
      <use
         xlink:href="#l"
         transform="translate(653.35556,276.37778)"
         id="use86"
         x="0"
         y="0"
         width="100%"
         height="100%" />
    </g>
    <path
       d="m 717.78,237.78 40,0 0,60 -40,0 z"
       id="path88"
       inkscape:connector-curvature="0"
       style="fill:none" />
    <g
       id="g90">
      <use
         xlink:href="#l"
         transform="translate(733.35556,276.37778)"
         id="use92"
         x="0"
         y="0"
         width="100%"
         height="100%" />
    </g>
    <path
       d="m 677.78,197.78 40,0 0,60 -40,0 z"
       id="path94"
       inkscape:connector-curvature="0"
       style="fill:none" />
    <g
       id="g96">
      <use
         xlink:href="#l"
         transform="translate(693.35556,236.37778)"
         id="use98"
         x="0"
         y="0"
         width="100%"
         height="100%" />
    </g>
    <defs
       id="defs100">
      <path
         d="M 1289,-200 C 1173,-69 1017,19 773,16 434,12 234,-164 139,-419 c -65,-176 -67,-421 3,-594 104,-257 318,-431 668,-436 220,-3 359,75 476,182 -27,35 -48,75 -79,105 -60,21 -86,-37 -135,-56 -109,-71 -336,-85 -474,-24 -190,83 -310,257 -310,526 0,268 114,444 301,527 146,65 383,42 487,-33 24,-17 50,-36 75,-59 20,-19 44,-22 62,-2"
         id="m"
         inkscape:connector-curvature="0"
         style="fill:#ffffff" />
      <path
         d="m 344,-1473 0,1473 -178,0 0,-1473 178,0"
         id="n"
         inkscape:connector-curvature="0"
         style="fill:#ffffff" />
      <path
         d="m 537,-1031 c 235,0 353,147 353,383 L 890,0 C 832,-5 761,17 748,-42 l -20,-94 C 637,-55 545,19 375,16 200,13 92,-76 92,-253 c 0,-184 160,-243 332,-285 79,-19 176,-28 291,-31 12,-184 -31,-318 -200,-318 -113,0 -181,45 -243,91 -36,26 -82,14 -99,-17 l -32,-57 c 101,-96 215,-161 396,-161 z m -274,770 c 0,103 62,152 165,152 140,0 216,-64 287,-136 l 0,-211 c -141,4 -258,19 -349,60 -60,27 -103,62 -103,135"
         id="o"
         inkscape:connector-curvature="0"
         style="fill:#ffffff" />
      <path
         d="m 409,-112 c 121,-3 207,-52 207,-167 0,-134 -157,-142 -264,-181 -133,-48 -263,-98 -263,-275 0,-197 153,-290 360,-294 139,-3 243,49 317,118 -26,35 -46,114 -111,76 -53,-31 -114,-63 -202,-61 -108,3 -195,44 -195,147 0,129 158,136 262,175 128,48 263,93 263,264 C 783,-89 627,12 400,16 255,19 139,-39 62,-107 c 27,-41 57,-128 128,-81 57,38 118,78 219,76"
         id="p"
         inkscape:connector-curvature="0"
         style="fill:#ffffff" />
      <path
         d="m 584,-856 c -148,6 -210,94 -260,211 l 0,645 -178,0 0,-1013 c 62,7 151,-25 157,49 l 12,158 c 66,-138 184,-259 384,-216 23,5 44,16 63,27 l -23,133 c -5,17 -15,25 -31,25 -36,0 -71,-21 -124,-19"
         id="q"
         inkscape:connector-curvature="0"
         style="fill:#ffffff" />
      <path
         d="M 1038,-507 C 1038,-186 874,14 556,14 238,14 72,-187 72,-507 c 0,-248 107,-410 284,-485 60,-25 126,-37 200,-37 317,0 482,201 482,522 z m -782,1 c 0,225 80,381 300,381 213,0 298,-159 298,-381 0,-223 -84,-383 -298,-383 -221,0 -300,158 -300,383"
         id="r"
         inkscape:connector-curvature="0"
         style="fill:#ffffff" />
      <path
         d="m 550,-887 c -107,0 -172,65 -226,132 l 0,755 -178,0 0,-1013 c 60,6 147,-22 154,37 l 13,104 c 69,-80 148,-156 287,-157 148,-1 223,92 258,211 51,-126 153,-211 323,-211 232,0 338,149 338,384 l 0,645 -178,0 0,-645 c 1,-148 -62,-242 -203,-242 -142,0 -218,94 -218,242 l 0,645 -178,0 0,-645 c 1,-149 -54,-242 -192,-242"
         id="s"
         inkscape:connector-curvature="0"
         style="fill:#ffffff" />
      <g
         id="a">
        <use
           transform="scale(0.009,0.009)"
           xlink:href="#m"
           id="use110"
           x="0"
           y="0"
           width="100%"
           height="100%" />
        <use
           transform="matrix(0.009,0,0,0.009,12.33,0)"
           xlink:href="#n"
           id="use112"
           x="0"
           y="0"
           width="100%"
           height="100%" />
        <use
           transform="matrix(0.009,0,0,0.009,16.938,0)"
           xlink:href="#o"
           id="use114"
           x="0"
           y="0"
           width="100%"
           height="100%" />
        <use
           transform="matrix(0.009,0,0,0.009,26.064,0)"
           xlink:href="#p"
           id="use116"
           x="0"
           y="0"
           width="100%"
           height="100%" />
        <use
           transform="matrix(0.009,0,0,0.009,33.876,0)"
           xlink:href="#p"
           id="use118"
           x="0"
           y="0"
           width="100%"
           height="100%" />
        <use
           transform="matrix(0.009,0,0,0.009,41.688,0)"
           xlink:href="#q"
           id="use120"
           x="0"
           y="0"
           width="100%"
           height="100%" />
        <use
           transform="matrix(0.009,0,0,0.009,48.942,0)"
           xlink:href="#r"
           id="use122"
           x="0"
           y="0"
           width="100%"
           height="100%" />
        <use
           transform="matrix(0.009,0,0,0.009,58.95,0)"
           xlink:href="#r"
           id="use124"
           x="0"
           y="0"
           width="100%"
           height="100%" />
        <use
           transform="matrix(0.009,0,0,0.009,68.958,0)"
           xlink:href="#s"
           id="use126"
           x="0"
           y="0"
           width="100%"
           height="100%" />
      </g>
      <path
         d="m 387,-805 c 45,-1 103,5 133,-9 15,-6 30,-18 43,-33 l 477,-540 c 28,-29 44,-46 95,-46 l 165,0 -546,617 c -26,27 -46,49 -79,65 43,14 65,39 93,72 L 1338,0 c -92,-7 -205,17 -256,-41 L 587,-610 c -25,-30 -54,-46 -112,-46 l -88,0 0,656 -193,0 0,-1433 193,0 0,628"
         id="t"
         inkscape:connector-curvature="0"
         style="fill:#ffffff" />
      <g
         id="b">
        <use
           transform="scale(0.009,0.009)"
           xlink:href="#t"
           id="use130"
           x="0"
           y="0"
           width="100%"
           height="100%" />
        <use
           transform="matrix(0.009,0,0,0.009,12.258,0)"
           xlink:href="#o"
           id="use132"
           x="0"
           y="0"
           width="100%"
           height="100%" />
        <use
           transform="matrix(0.009,0,0,0.009,21.384,0)"
           xlink:href="#q"
           id="use134"
           x="0"
           y="0"
           width="100%"
           height="100%" />
        <use
           transform="matrix(0.009,0,0,0.009,28.638,0)"
           xlink:href="#n"
           id="use136"
           x="0"
           y="0"
           width="100%"
           height="100%" />
      </g>
      <path
         d="M 409,293 C 214,8 88,-383 149,-866 c 35,-276 133,-488 260,-685 32,22 70,38 97,65 12,17 8,37 -3,57 -126,218 -214,479 -214,800 0,321 87,582 214,800 15,26 10,65 -15,74"
         id="u"
         inkscape:connector-curvature="0"
         style="fill:#ffffff" />
      <path
         d="m 617,-1433 c 323,3 534,130 534,444 0,310 -216,446 -534,453 l -230,0 0,536 -193,0 0,-1433 423,0 z m 340,444 c 0,-197 -128,-291 -340,-291 l -230,0 0,590 230,0 c 207,-4 340,-97 340,-299"
         id="v"
         inkscape:connector-curvature="0"
         style="fill:#ffffff" />
      <path
         d="m 594,-1317 c -165,0 -237,72 -235,231 l 0,93 293,0 0,129 -287,0 0,864 -179,0 0,-861 c -49,-9 -113,-4 -146,-29 -24,-17 -10,-67 -14,-103 l 160,0 0,-98 c 5,-229 120,-363 348,-363 45,0 87,7 126,20 l -4,89 c -2,31 -28,28 -62,28"
         id="w"
         inkscape:connector-curvature="0"
         style="fill:#ffffff" />
      <path
         d="M 954,-142 C 850,-8 572,61 364,-22 180,-96 74,-268 74,-527 c 0,-234 108,-389 275,-463 59,-26 125,-39 198,-39 273,0 420,174 420,453 0,48 -2,70 -43,70 l -674,0 c 8,226 98,375 322,380 114,2 191,-38 258,-82 70,-46 94,37 124,66 z M 807,-617 c -5,-171 -86,-278 -256,-281 -181,-3 -273,116 -295,281 l 551,0"
         id="x"
         inkscape:connector-curvature="0"
         style="fill:#ffffff" />
      <path
         d="m 178,-1551 c 194,286 322,675 260,1159 -35,275 -132,490 -260,685 -32,-22 -72,-36 -97,-64 -13,-15 -6,-42 3,-58 125,-219 214,-478 214,-800 0,-321 -92,-580 -214,-800 -41,-75 58,-89 94,-122"
         id="y"
         inkscape:connector-curvature="0"
         style="fill:#ffffff" />
      <g
         id="c">
        <use
           transform="scale(0.009,0.009)"
           xlink:href="#u"
           id="use144"
           x="0"
           y="0"
           width="100%"
           height="100%" />
        <use
           transform="matrix(0.009,0,0,0.009,5.4,0)"
           xlink:href="#v"
           id="use146"
           x="0"
           y="0"
           width="100%"
           height="100%" />
        <use
           transform="matrix(0.009,0,0,0.009,16.398,0)"
           xlink:href="#q"
           id="use148"
           x="0"
           y="0"
           width="100%"
           height="100%" />
        <use
           transform="matrix(0.009,0,0,0.009,23.652,0)"
           xlink:href="#r"
           id="use150"
           x="0"
           y="0"
           width="100%"
           height="100%" />
        <use
           transform="matrix(0.009,0,0,0.009,33.66,0)"
           xlink:href="#w"
           id="use152"
           x="0"
           y="0"
           width="100%"
           height="100%" />
        <use
           transform="matrix(0.009,0,0,0.009,39.726,0)"
           xlink:href="#x"
           id="use154"
           x="0"
           y="0"
           width="100%"
           height="100%" />
        <use
           transform="matrix(0.009,0,0,0.009,49.158,0)"
           xlink:href="#p"
           id="use156"
           x="0"
           y="0"
           width="100%"
           height="100%" />
        <use
           transform="matrix(0.009,0,0,0.009,56.97,0)"
           xlink:href="#p"
           id="use158"
           x="0"
           y="0"
           width="100%"
           height="100%" />
        <use
           transform="matrix(0.009,0,0,0.009,64.782,0)"
           xlink:href="#r"
           id="use160"
           x="0"
           y="0"
           width="100%"
           height="100%" />
        <use
           transform="matrix(0.009,0,0,0.009,74.79,0)"
           xlink:href="#q"
           id="use162"
           x="0"
           y="0"
           width="100%"
           height="100%" />
        <use
           transform="matrix(0.009,0,0,0.009,82.044,0)"
           xlink:href="#y"
           id="use164"
           x="0"
           y="0"
           width="100%"
           height="100%" />
      </g>
      <g
         id="d">
        <use
           transform="scale(0.009,0.009)"
           xlink:href="#w"
           id="use167"
           x="0"
           y="0"
           width="100%"
           height="100%" />
        <use
           transform="matrix(0.009,0,0,0.009,6.066,0)"
           xlink:href="#q"
           id="use169"
           x="0"
           y="0"
           width="100%"
           height="100%" />
        <use
           transform="matrix(0.009,0,0,0.009,13.32,0)"
           xlink:href="#r"
           id="use171"
           x="0"
           y="0"
           width="100%"
           height="100%" />
        <use
           transform="matrix(0.009,0,0,0.009,23.328,0)"
           xlink:href="#s"
           id="use173"
           x="0"
           y="0"
           width="100%"
           height="100%" />
      </g>
      <path
         d="M 698,-76 C 644,-24 553,16 453,16 291,17 204,-80 204,-244 l 0,-620 c -58,-9 -160,26 -160,-39 l 0,-71 166,-21 41,-313 c 4,-50 80,-30 131,-34 l 0,349 290,0 0,129 -290,0 0,608 c -2,78 40,125 111,126 60,2 88,-33 128,-48 9,0 18,6 25,17"
         id="z"
         inkscape:connector-curvature="0"
         style="fill:#ffffff" />
      <path
         d="m 344,-1013 0,1013 -178,0 0,-1013 178,0 z m -88,-446 c 77,0 128,52 128,128 0,75 -52,126 -128,126 -75,0 -126,-51 -126,-126 0,-76 50,-128 126,-128"
         id="A"
         inkscape:connector-curvature="0"
         style="fill:#ffffff" />
      <path
         d="m 598,-887 c -125,2 -207,68 -274,141 l 0,746 -178,0 0,-1013 c 60,6 147,-22 154,37 l 14,110 c 82,-87 177,-163 336,-163 232,0 339,151 339,384 l 0,645 -178,0 0,-645 c 0,-149 -65,-244 -213,-242"
         id="B"
         inkscape:connector-curvature="0"
         style="fill:#ffffff" />
      <g
         id="e">
        <use
           transform="scale(0.009,0.009)"
           xlink:href="#t"
           id="use179"
           x="0"
           y="0"
           width="100%"
           height="100%" />
        <use
           transform="matrix(0.009,0,0,0.009,11.934,0)"
           xlink:href="#r"
           id="use181"
           x="0"
           y="0"
           width="100%"
           height="100%" />
        <use
           transform="matrix(0.009,0,0,0.009,21.942,0)"
           xlink:href="#z"
           id="use183"
           x="0"
           y="0"
           width="100%"
           height="100%" />
        <use
           transform="matrix(0.009,0,0,0.009,28.656,0)"
           xlink:href="#n"
           id="use185"
           x="0"
           y="0"
           width="100%"
           height="100%" />
        <use
           transform="matrix(0.009,0,0,0.009,33.264,0)"
           xlink:href="#A"
           id="use187"
           x="0"
           y="0"
           width="100%"
           height="100%" />
        <use
           transform="matrix(0.009,0,0,0.009,37.872,0)"
           xlink:href="#B"
           id="use189"
           x="0"
           y="0"
           width="100%"
           height="100%" />
      </g>
      <path
         d="m 243,-146 c 204,-7 276,-136 277,-345 l 0,-942 193,0 0,938 C 709,-181 572,16 262,16 197,16 130,7 60,-12 c 7,-48 1,-109 24,-142 47,-28 93,10 159,8"
         id="C"
         inkscape:connector-curvature="0"
         style="fill:#ffffff" />
      <path
         d="m 598,-887 c -125,2 -207,68 -274,141 l 0,746 -178,0 0,-1473 178,0 0,596 c 81,-82 173,-152 326,-152 232,0 339,151 339,384 l 0,645 -178,0 0,-645 c 0,-149 -65,-244 -213,-242"
         id="D"
         inkscape:connector-curvature="0"
         style="fill:#ffffff" />
      <g
         id="f">
        <use
           transform="scale(0.009,0.009)"
           xlink:href="#C"
           id="use194"
           x="0"
           y="0"
           width="100%"
           height="100%" />
        <use
           transform="matrix(0.009,0,0,0.009,7.992,0)"
           xlink:href="#r"
           id="use196"
           x="0"
           y="0"
           width="100%"
           height="100%" />
        <use
           transform="matrix(0.009,0,0,0.009,18,0)"
           xlink:href="#D"
           id="use198"
           x="0"
           y="0"
           width="100%"
           height="100%" />
        <use
           transform="matrix(0.009,0,0,0.009,28.008,0)"
           xlink:href="#o"
           id="use200"
           x="0"
           y="0"
           width="100%"
           height="100%" />
        <use
           transform="matrix(0.009,0,0,0.009,37.134,0)"
           xlink:href="#B"
           id="use202"
           x="0"
           y="0"
           width="100%"
           height="100%" />
        <use
           transform="matrix(0.009,0,0,0.009,47.142,0)"
           xlink:href="#B"
           id="use204"
           x="0"
           y="0"
           width="100%"
           height="100%" />
      </g>
      <path
         d="m 513,-145 c 178,-4 292,-88 292,-262 0,-193 -194,-213 -343,-263 -182,-61 -347,-142 -342,-385 4,-188 111,-303 254,-361 117,-48 292,-41 408,5 66,26 124,62 173,110 -22,37 -36,86 -66,115 -51,25 -83,-28 -123,-48 -53,-26 -114,-56 -200,-54 -157,4 -266,71 -266,223 0,186 200,204 344,258 175,65 343,135 343,372 0,289 -185,446 -480,451 -198,4 -349,-81 -449,-187 26,-36 42,-83 76,-111 60,-25 93,39 140,65 62,34 135,75 239,72"
         id="E"
         inkscape:connector-curvature="0"
         style="fill:#ffffff" />
      <path
         d="M 461,16 C 230,16 122,-133 122,-367 l 0,-646 178,0 0,646 c 0,148 67,243 213,241 125,-2 207,-66 274,-140 l 0,-747 178,0 0,1013 C 905,-6 819,22 811,-37 L 797,-146 C 716,-60 619,16 461,16"
         id="F"
         inkscape:connector-curvature="0"
         style="fill:#ffffff" />
      <path
         d="m 510,-1031 c 133,0 210,49 277,120 l 0,-562 178,0 0,1473 C 905,-6 819,21 811,-37 L 795,-160 C 716,-67 616,14 455,14 173,14 72,-209 72,-503 c 0,-237 94,-406 254,-487 54,-27 115,-41 184,-41 z m -254,528 c 2,212 53,373 258,373 136,0 207,-69 273,-153 l 0,-490 c -57,-77 -121,-119 -237,-119 -208,0 -296,164 -294,389"
         id="G"
         inkscape:connector-curvature="0"
         style="fill:#ffffff" />
      <g
         id="g">
        <use
           transform="scale(0.009,0.009)"
           xlink:href="#u"
           id="use210"
           x="0"
           y="0"
           width="100%"
           height="100%" />
        <use
           transform="matrix(0.009,0,0,0.009,5.4,0)"
           xlink:href="#E"
           id="use212"
           x="0"
           y="0"
           width="100%"
           height="100%" />
        <use
           transform="matrix(0.009,0,0,0.009,14.94,0)"
           xlink:href="#z"
           id="use214"
           x="0"
           y="0"
           width="100%"
           height="100%" />
        <use
           transform="matrix(0.009,0,0,0.009,21.654,0)"
           xlink:href="#F"
           id="use216"
           x="0"
           y="0"
           width="100%"
           height="100%" />
        <use
           transform="matrix(0.009,0,0,0.009,31.662,0)"
           xlink:href="#G"
           id="use218"
           x="0"
           y="0"
           width="100%"
           height="100%" />
        <use
           transform="matrix(0.009,0,0,0.009,41.724,0)"
           xlink:href="#x"
           id="use220"
           x="0"
           y="0"
           width="100%"
           height="100%" />
        <use
           transform="matrix(0.009,0,0,0.009,51.156,0)"
           xlink:href="#B"
           id="use222"
           x="0"
           y="0"
           width="100%"
           height="100%" />
        <use
           transform="matrix(0.009,0,0,0.009,61.164,0)"
           xlink:href="#z"
           id="use224"
           x="0"
           y="0"
           width="100%"
           height="100%" />
        <use
           transform="matrix(0.009,0,0,0.009,67.878,0)"
           xlink:href="#y"
           id="use226"
           x="0"
           y="0"
           width="100%"
           height="100%" />
      </g>
      <path
         d="m 18,-1013 146,0 c 28,-1 47,18 55,37 l 257,652 c 18,45 27,93 37,143 12,-50 22,-98 40,-143 l 260,-652 c 17,-60 123,-30 192,-37 L 592,0 431,0"
         id="H"
         inkscape:connector-curvature="0"
         style="fill:#ffffff" />
      <g
         id="h">
        <use
           transform="scale(0.009,0.009)"
           xlink:href="#C"
           id="use230"
           x="0"
           y="0"
           width="100%"
           height="100%" />
        <use
           transform="matrix(0.009,0,0,0.009,7.992,0)"
           xlink:href="#o"
           id="use232"
           x="0"
           y="0"
           width="100%"
           height="100%" />
        <use
           transform="matrix(0.009,0,0,0.009,16.83,0)"
           xlink:href="#H"
           id="use234"
           x="0"
           y="0"
           width="100%"
           height="100%" />
        <use
           transform="matrix(0.009,0,0,0.009,26.046,0)"
           xlink:href="#o"
           id="use236"
           x="0"
           y="0"
           width="100%"
           height="100%" />
      </g>
      <g
         id="i">
        <use
           transform="scale(0.009,0.009)"
           xlink:href="#v"
           id="use239"
           x="0"
           y="0"
           width="100%"
           height="100%" />
        <use
           transform="matrix(0.009,0,0,0.009,10.728,0)"
           xlink:href="#x"
           id="use241"
           x="0"
           y="0"
           width="100%"
           height="100%" />
        <use
           transform="matrix(0.009,0,0,0.009,20.16,0)"
           xlink:href="#z"
           id="use243"
           x="0"
           y="0"
           width="100%"
           height="100%" />
        <use
           transform="matrix(0.009,0,0,0.009,26.874,0)"
           xlink:href="#x"
           id="use245"
           x="0"
           y="0"
           width="100%"
           height="100%" />
        <use
           transform="matrix(0.009,0,0,0.009,36.306,0)"
           xlink:href="#q"
           id="use247"
           x="0"
           y="0"
           width="100%"
           height="100%" />
      </g>
      <path
         d="m 443,299 c -13,26 -25,44 -64,44 l -132,0 185,-402 -418,-954 154,0 c 30,-1 46,18 55,37 95,228 197,450 287,682 6,14 8,30 11,45 10,-32 18,-60 30,-90 l 263,-637 c 18,-60 124,-30 194,-37"
         id="I"
         inkscape:connector-curvature="0"
         style="fill:#ffffff" />
      <g
         id="j">
        <use
           transform="scale(0.009,0.009)"
           xlink:href="#v"
           id="use251"
           x="0"
           y="0"
           width="100%"
           height="100%" />
        <use
           transform="matrix(0.009,0,0,0.009,10.998,0)"
           xlink:href="#I"
           id="use253"
           x="0"
           y="0"
           width="100%"
           height="100%" />
        <use
           transform="matrix(0.009,0,0,0.009,20.214,0)"
           xlink:href="#z"
           id="use255"
           x="0"
           y="0"
           width="100%"
           height="100%" />
        <use
           transform="matrix(0.009,0,0,0.009,26.928,0)"
           xlink:href="#D"
           id="use257"
           x="0"
           y="0"
           width="100%"
           height="100%" />
        <use
           transform="matrix(0.009,0,0,0.009,36.936,0)"
           xlink:href="#r"
           id="use259"
           x="0"
           y="0"
           width="100%"
           height="100%" />
        <use
           transform="matrix(0.009,0,0,0.009,46.944,0)"
           xlink:href="#B"
           id="use261"
           x="0"
           y="0"
           width="100%"
           height="100%" />
      </g>
      <path
         d="m 593,-1115 c 0,-124 -90,-185 -216,-188 -103,-3 -171,39 -227,81 -66,49 -88,-52 -116,-83 87,-79 194,-144 358,-144 217,0 362,110 368,325 6,234 -175,296 -292,411 -47,46 -32,138 -48,213 l -122,0 c 1,-85 -34,-190 10,-252 88,-125 285,-156 285,-363 z M 354,15 c -76,0 -124,-49 -124,-125 0,-76 48,-126 124,-126 76,0 125,50 125,126 0,77 -49,125 -125,125"
         id="J"
         inkscape:connector-curvature="0"
         style="fill:#ffffff" />
      <use
         transform="scale(0.08888889,0.08888889)"
         xlink:href="#J"
         id="k"
         x="0"
         y="0"
         width="100%"
         height="100%" />
      <use
         transform="scale(0.01111111,0.01111111)"
         xlink:href="#J"
         id="l"
         x="0"
         y="0"
         width="100%"
         height="100%" />
    </defs>
  </g>
</svg>
