<?xml version="1.0" encoding="UTF-8" standalone="no"?>
<svg
   xmlns:dc="http://purl.org/dc/elements/1.1/"
   xmlns:cc="http://creativecommons.org/ns#"
   xmlns:rdf="http://www.w3.org/1999/02/22-rdf-syntax-ns#"
   xmlns:svg="http://www.w3.org/2000/svg"
   xmlns="http://www.w3.org/2000/svg"
   xmlns:xlink="http://www.w3.org/1999/xlink"
   xmlns:sodipodi="http://sodipodi.sourceforge.net/DTD/sodipodi-0.dtd"
   xmlns:inkscape="http://www.inkscape.org/namespaces/inkscape"
   width="1372.9407"
   height="931.84515"
   id="svg2"
   version="1.1"
   inkscape:version="0.91 r13725"
   sodipodi:docname="gRpc -  gRpc2.svg">
  <metadata
     id="metadata280">
    <rdf:RDF>
      <cc:Work
         rdf:about="">
        <dc:format>image/svg+xml</dc:format>
        <dc:type
           rdf:resource="http://purl.org/dc/dcmitype/StillImage" />
        <dc:title></dc:title>
      </cc:Work>
    </rdf:RDF>
  </metadata>
  <defs
     id="defs278" />
  <sodipodi:namedview
     pagecolor="#ffffff"
     bordercolor="#666666"
     borderopacity="1"
     objecttolerance="10"
     gridtolerance="10"
     guidetolerance="10"
     inkscape:pageopacity="0"
     inkscape:pageshadow="2"
     inkscape:window-width="640"
     inkscape:window-height="480"
     id="namedview276"
     showgrid="false"
     fit-margin-top="0"
     fit-margin-left="0"
     fit-margin-right="0"
     fit-margin-bottom="0"
     inkscape:zoom="0.21114985"
     inkscape:cx="604.02557"
     inkscape:cy="412.22015"
     inkscape:window-x="0"
     inkscape:window-y="24"
     inkscape:window-maximized="0"
     inkscape:current-layer="svg2" />
  <g
     id="g4"
     transform="translate(-18.754875,-25.66)">
    <path
       d="m 1025.66,25.66 310,0 0,164.94 -310,0 z"
       id="path6"
       inkscape:connector-curvature="0"
       style="fill:none" />
    <use
       xlink:href="#a"
       transform="translate(1059.8826,151.16038)"
       id="use8"
       x="0"
       y="0"
       width="100%"
       height="100%" />
    <path
       d="m 945.66,316.6 52.8,-44 387.2,0 0,387.2 -44,52.8 -396,0 z"
       id="path10"
       inkscape:connector-curvature="0"
       style="fill:#47a8f5;stroke:#ffffff;stroke-width:5" />
    <path
       d="m 945.66,316.6 52.8,-44 387.2,0 -44,44 z"
       id="path12"
       inkscape:connector-curvature="0"
       style="fill:#4097dd;stroke:#ffffff;stroke-width:5" />
    <path
       d="m 1341.66,316.6 44,-44 0,387.2 -44,52.8 z"
       id="path14"
       inkscape:connector-curvature="0"
       style="fill:#3986c4;stroke:#ffffff;stroke-width:5" />
    <use
       xlink:href="#b"
       transform="translate(1034.5159,346.52704)"
       id="use16"
       x="0"
       y="0"
       width="100%"
       height="100%" />
    <use
       xlink:href="#c"
       transform="translate(1097.9159,346.52704)"
       id="use18"
       x="0"
       y="0"
       width="100%"
       height="100%" />
    <path
       d="m 25.66,86.6 43.2,-36 316.8,0 0,316.8 -36,43.2 -324,0 z"
       id="path20"
       inkscape:connector-curvature="0"
       style="fill:#9ecd67;stroke:#ffffff;stroke-width:5" />
    <path
       d="m 25.66,86.6 43.2,-36 316.8,0 -36,36 z"
       id="path22"
       inkscape:connector-curvature="0"
       style="fill:#8eb95d;stroke:#ffffff;stroke-width:5" />
    <path
       d="m 349.66,86.6 36,-36 0,316.8 -36,43.2 z"
       id="path24"
       inkscape:connector-curvature="0"
       style="fill:#7ea452;stroke:#ffffff;stroke-width:5" />
    <use
       xlink:href="#d"
       transform="translate(94.360377,116.52704)"
       id="use26"
       x="0"
       y="0"
       width="100%"
       height="100%" />
    <use
       xlink:href="#c"
       transform="translate(142.07149,116.52704)"
       id="use28"
       x="0"
       y="0"
       width="100%"
       height="100%" />
    <path
       d="m 25.66,626.6 43.2,-36 316.8,0 0,316.8 -36,43.2 -324,0 z"
       id="path30"
       inkscape:connector-curvature="0"
       style="fill:#ff7549;stroke:#ffffff;stroke-width:5" />
    <path
       d="m 25.66,626.6 43.2,-36 316.8,0 -36,36 z"
       id="path32"
       inkscape:connector-curvature="0"
       style="fill:#e66942;stroke:#ffffff;stroke-width:5" />
    <path
       d="m 349.66,626.6 36,-36 0,316.8 -36,43.2 z"
       id="path34"
       inkscape:connector-curvature="0"
       style="fill:#cc5e3a;stroke:#ffffff;stroke-width:5" />
    <use
       xlink:href="#e"
       transform="translate(80.915933,656.52704)"
       id="use36"
       x="0"
       y="0"
       width="100%"
       height="100%" />
    <use
       xlink:href="#c"
       transform="translate(155.51593,656.52704)"
       id="use38"
       x="0"
       y="0"
       width="100%"
       height="100%" />
    <path
       d="m 1065.66,390.6 140,0 0,120 -140,0 z"
       id="path40"
       inkscape:connector-curvature="0"
       style="fill:#333333;stroke:#ffffff;stroke-width:5" />
    <path
       d="m 1045.66,410.6 40,0 0,20 -40,0 z m 0,60 40,0 0,20 -40,0 z"
       id="path42"
       inkscape:connector-curvature="0"
       style="fill:#333333;stroke:#ffffff;stroke-width:5" />
    <use
       xlink:href="#f"
       transform="translate(1081.9715,445.86038)"
       id="use44"
       x="0"
       y="0"
       width="100%"
       height="100%" />
    <use
       xlink:href="#g"
       transform="translate(1101.627,472.52704)"
       id="use46"
       x="0"
       y="0"
       width="100%"
       height="100%" />
    <path
       d="m 1065.66,550.6 140,0 0,120 -140,0 z"
       id="path48"
       inkscape:connector-curvature="0"
       style="fill:#333333;stroke:#ffffff;stroke-width:5" />
    <path
       d="m 1045.66,570.6 40,0 0,20 -40,0 z m 0,60 40,0 0,20 -40,0 z"
       id="path50"
       inkscape:connector-curvature="0"
       style="fill:#333333;stroke:#ffffff;stroke-width:5" />
    <use
       xlink:href="#h"
       transform="translate(1086.3493,619.19371)"
       id="use52"
       x="0"
       y="0"
       width="100%"
       height="100%" />
    <path
       d="m 125.66,190.6 140,0 0,120 -140,0 z"
       id="path54"
       inkscape:connector-curvature="0"
       style="fill:#333333;stroke:#ffffff;stroke-width:5" />
    <path
       d="m 105.66,210.6 40,0 0,20 -40,0 z m 0,60 40,0 0,20 -40,0 z"
       id="path56"
       inkscape:connector-curvature="0"
       style="fill:#333333;stroke:#ffffff;stroke-width:5" />
    <use
       xlink:href="#i"
       transform="translate(155.09371,259.19371)"
       id="use58"
       x="0"
       y="0"
       width="100%"
       height="100%" />
    <path
       d="m 125.66,730.6 140,0 0,120 -140,0 z"
       id="path60"
       inkscape:connector-curvature="0"
       style="fill:#333333;stroke:#ffffff;stroke-width:5" />
    <path
       d="m 105.66,750.6 40,0 0,20 -40,0 z m 0,60 40,0 0,20 -40,0 z"
       id="path62"
       inkscape:connector-curvature="0"
       style="fill:#333333;stroke:#ffffff;stroke-width:5" />
    <use
       xlink:href="#i"
       transform="translate(155.09371,799.19371)"
       id="use64"
       x="0"
       y="0"
       width="100%"
       height="100%" />
    <path
       d="m 1045.66,580.6 -65,0 0,-50 -65,0"
       id="path66"
       inkscape:connector-curvature="0"
       style="fill:none;stroke:#ffffff;stroke-width:5" />
    <path
       d="m 915.66,533.1 -3,0 0,-5 3,0 z"
       id="path68"
       inkscape:connector-curvature="0"
       style="fill:#ffffff" />
    <path
       d="m 725.66,447.26 240,0 0,63.33 -240,0 z"
       id="path70"
       inkscape:connector-curvature="0"
       style="fill:none" />
    <use
       xlink:href="#j"
       transform="translate(798.34927,474.52704)"
       id="use72"
       x="0"
       y="0"
       width="100%"
       height="100%" />
    <use
       xlink:href="#k"
       transform="translate(809.92704,501.19371)"
       id="use74"
       x="0"
       y="0"
       width="100%"
       height="100%" />
    <path
       d="m 915.66,530.6 -11,0 m -14,-20 c -11.05,0 -20,8.95 -20,20 0,11.04 8.95,20 20,20 m -20,-20 -5,0"
       id="path76"
       inkscape:connector-curvature="0"
       style="fill:none;stroke:#ffffff;stroke-width:5" />
    <path
       d="m 890.66,544.6 c -7.73,0 -14,-6.27 -14,-14 0,-7.74 6.27,-14 14,-14 7.73,0 14,6.26 14,14 0,7.73 -6.27,14 -14,14 z"
       id="path78"
       inkscape:connector-curvature="0"
       style="fill:#333333;stroke:#ffffff;stroke-width:5" />
    <path
       d="m 890.66,510.6 c -11.05,0 -20,8.95 -20,20 0,11.04 8.95,20 20,20 11.05,0 20,-8.96 20,-20 0,-11.05 -8.95,-20 -20,-20 z"
       id="path80"
       inkscape:connector-curvature="0"
       style="fill:none" />
    <path
       d="m 265.66,250.6 290,0 0,280 310,0"
       id="path82"
       inkscape:connector-curvature="0"
       style="fill:none;stroke:#ffffff;stroke-width:5" />
    <path
       d="m 868.66,533.1 -3,0 0,-5 3,0 z"
       id="path84"
       inkscape:connector-curvature="0"
       style="fill:#ffffff" />
    <path
       d="m 265.66,790.6 290,0 0,-260 310,0"
       id="path86"
       inkscape:connector-curvature="0"
       style="fill:none;stroke:#ffffff;stroke-width:5" />
    <path
       d="m 868.66,533.1 -3,0 0,-5 3,0 z"
       id="path88"
       inkscape:connector-curvature="0"
       style="fill:#ffffff" />
    <defs
       id="defs90">
      <path
         d="m 103,-704 c 0,-220 160,-326 384,-326 92,0 169,21 228,57 l 275,0 c -2,53 13,100 -42,108 l -115,16 c 43,79 45,196 5,279 -58,120 -176,191 -351,193 -47,0 -92,-6 -134,-17 -50,22 -100,108 -36,142 165,88 511,-13 621,164 40,65 36,170 -4,240 C 857,286 705,365 493,365 300,365 150,315 78,198 59,166 50,132 50,97 c 3,-117 84,-175 178,-211 -54,-27 -98,-64 -94,-143 4,-90 64,-137 129,-173 -91,-51 -160,-139 -160,-274 z M 334,-85 C 254,-53 162,38 224,138 321,295 810,271 803,55 799,-63 659,-58 543,-68 473,-74 397,-74 334,-85 Z m -67,-614 c 0,134 84,204 220,204 137,0 221,-69 221,-204 0,-129 -85,-203 -221,-203 -135,0 -220,74 -220,203"
         id="l"
         inkscape:connector-curvature="0"
         style="fill:#ffffff" />
      <path
         d="m 1124,-1036 c 0,240 -152,355 -353,406 24,14 45,35 64,61 L 1253,0 c -92,-9 -205,21 -250,-41 L 631,-553 c -24,-32 -41,-45 -97,-45 l -147,0 0,598 -193,0 0,-1433 405,0 c 307,3 525,101 525,397 z m -189,14 c 0,-188 -133,-258 -336,-258 l -212,0 0,541 203,0 c 205,-3 345,-85 345,-283"
         id="m"
         inkscape:connector-curvature="0"
         style="fill:#ffffff" />
      <path
         d="M 602,14 C 469,14 390,-33 324,-105 l 0,448 -178,0 0,-1356 c 60,6 147,-22 154,37 l 15,120 c 80,-93 179,-175 341,-175 282,0 383,224 383,518 0,237 -92,406 -253,487 C 732,1 670,14 602,14 Z m 253,-527 c -3,-212 -53,-374 -258,-374 -136,0 -207,69 -273,153 l 0,490 c 57,77 121,120 238,120 207,0 295,-164 293,-389"
         id="n"
         inkscape:connector-curvature="0"
         style="fill:#ffffff" />
      <path
         d="M 895,-142 C 799,-8 539,62 344,-21 173,-94 74,-262 74,-507 c 0,-317 160,-522 477,-522 151,0 254,54 333,132 -21,26 -39,58 -63,81 -42,20 -68,-19 -100,-34 -42,-20 -91,-42 -160,-40 -219,6 -304,160 -304,383 0,220 82,376 295,383 106,4 169,-38 223,-84 22,-19 53,-21 70,1"
         id="o"
         inkscape:connector-curvature="0"
         style="fill:#ffffff" />
      <g
         id="a">
        <use
           transform="scale(0.05555556,0.05555556)"
           xlink:href="#l"
           id="use97"
           x="0"
           y="0"
           width="100%"
           height="100%" />
        <use
           transform="matrix(0.05555556,0,0,0.05555556,56.777778,0)"
           xlink:href="#m"
           id="use99"
           x="0"
           y="0"
           width="100%"
           height="100%" />
        <use
           transform="matrix(0.05555556,0,0,0.05555556,128.33333,0)"
           xlink:href="#n"
           id="use101"
           x="0"
           y="0"
           width="100%"
           height="100%" />
        <use
           transform="matrix(0.05555556,0,0,0.05555556,189.66667,0)"
           xlink:href="#o"
           id="use103"
           x="0"
           y="0"
           width="100%"
           height="100%" />
      </g>
      <path
         d="m 387,-805 c 45,-1 103,5 133,-9 15,-6 30,-18 43,-33 l 477,-540 c 28,-29 44,-46 95,-46 l 165,0 -546,617 c -26,27 -46,49 -79,65 43,14 65,39 93,72 L 1338,0 c -92,-7 -205,17 -256,-41 L 587,-610 c -25,-30 -54,-46 -112,-46 l -88,0 0,656 -193,0 0,-1433 193,0 0,628"
         id="p"
         inkscape:connector-curvature="0"
         style="fill:#ffffff" />
      <path
         d="M 1038,-507 C 1038,-186 874,14 556,14 238,14 72,-187 72,-507 c 0,-248 107,-410 284,-485 60,-25 126,-37 200,-37 317,0 482,201 482,522 z m -782,1 c 0,225 80,381 300,381 213,0 298,-159 298,-381 0,-223 -84,-383 -298,-383 -221,0 -300,158 -300,383"
         id="q"
         inkscape:connector-curvature="0"
         style="fill:#ffffff" />
      <path
         d="M 698,-76 C 644,-24 553,16 453,16 291,17 204,-80 204,-244 l 0,-620 c -58,-9 -160,26 -160,-39 l 0,-71 166,-21 41,-313 c 4,-50 80,-30 131,-34 l 0,349 290,0 0,129 -290,0 0,608 c -2,78 40,125 111,126 60,2 88,-33 128,-48 9,0 18,6 25,17"
         id="r"
         inkscape:connector-curvature="0"
         style="fill:#ffffff" />
      <path
         d="m 344,-1473 0,1473 -178,0 0,-1473 178,0"
         id="s"
         inkscape:connector-curvature="0"
         style="fill:#ffffff" />
      <path
         d="m 344,-1013 0,1013 -178,0 0,-1013 178,0 z m -88,-446 c 77,0 128,52 128,128 0,75 -52,126 -128,126 -75,0 -126,-51 -126,-126 0,-76 50,-128 126,-128"
         id="t"
         inkscape:connector-curvature="0"
         style="fill:#ffffff" />
      <path
         d="m 598,-887 c -125,2 -207,68 -274,141 l 0,746 -178,0 0,-1013 c 60,6 147,-22 154,37 l 14,110 c 82,-87 177,-163 336,-163 232,0 339,151 339,384 l 0,645 -178,0 0,-645 c 0,-149 -65,-244 -213,-242"
         id="u"
         inkscape:connector-curvature="0"
         style="fill:#ffffff" />
      <g
         id="b">
        <use
           transform="scale(0.01111111,0.01111111)"
           xlink:href="#p"
           id="use112"
           x="0"
           y="0"
           width="100%"
           height="100%" />
        <use
           transform="matrix(0.01111111,0,0,0.01111111,14.733333,0)"
           xlink:href="#q"
           id="use114"
           x="0"
           y="0"
           width="100%"
           height="100%" />
        <use
           transform="matrix(0.01111111,0,0,0.01111111,27.088889,0)"
           xlink:href="#r"
           id="use116"
           x="0"
           y="0"
           width="100%"
           height="100%" />
        <use
           transform="matrix(0.01111111,0,0,0.01111111,35.377778,0)"
           xlink:href="#s"
           id="use118"
           x="0"
           y="0"
           width="100%"
           height="100%" />
        <use
           transform="matrix(0.01111111,0,0,0.01111111,41.066667,0)"
           xlink:href="#t"
           id="use120"
           x="0"
           y="0"
           width="100%"
           height="100%" />
        <use
           transform="matrix(0.01111111,0,0,0.01111111,46.755556,0)"
           xlink:href="#u"
           id="use122"
           x="0"
           y="0"
           width="100%"
           height="100%" />
      </g>
      <path
         d="M 461,16 C 230,16 122,-133 122,-367 l 0,-646 178,0 0,646 c 0,148 67,243 213,241 125,-2 207,-66 274,-140 l 0,-747 178,0 0,1013 C 905,-6 819,22 811,-37 L 797,-146 C 716,-60 619,16 461,16"
         id="v"
         inkscape:connector-curvature="0"
         style="fill:#ffffff" />
      <path
         d="m 550,-887 c -107,0 -172,65 -226,132 l 0,755 -178,0 0,-1013 c 60,6 147,-22 154,37 l 13,104 c 69,-80 148,-156 287,-157 148,-1 223,92 258,211 51,-126 153,-211 323,-211 232,0 338,149 338,384 l 0,645 -178,0 0,-645 c 1,-148 -62,-242 -203,-242 -142,0 -218,94 -218,242 l 0,645 -178,0 0,-645 c 1,-149 -54,-242 -192,-242"
         id="w"
         inkscape:connector-curvature="0"
         style="fill:#ffffff" />
      <path
         d="M 954,-142 C 850,-8 572,61 364,-22 180,-96 74,-268 74,-527 c 0,-234 108,-389 275,-463 59,-26 125,-39 198,-39 273,0 420,174 420,453 0,48 -2,70 -43,70 l -674,0 c 8,226 98,375 322,380 114,2 191,-38 258,-82 70,-46 94,37 124,66 z M 807,-617 c -5,-171 -86,-278 -256,-281 -181,-3 -273,116 -295,281 l 551,0"
         id="x"
         inkscape:connector-curvature="0"
         style="fill:#ffffff" />
      <g
         id="c">
        <use
           transform="scale(0.01111111,0.01111111)"
           xlink:href="#m"
           id="use128"
           x="0"
           y="0"
           width="100%"
           height="100%" />
        <use
           transform="matrix(0.01111111,0,0,0.01111111,14.311111,0)"
           xlink:href="#v"
           id="use130"
           x="0"
           y="0"
           width="100%"
           height="100%" />
        <use
           transform="matrix(0.01111111,0,0,0.01111111,26.666667,0)"
           xlink:href="#u"
           id="use132"
           x="0"
           y="0"
           width="100%"
           height="100%" />
        <use
           transform="matrix(0.01111111,0,0,0.01111111,39.022222,0)"
           xlink:href="#r"
           id="use134"
           x="0"
           y="0"
           width="100%"
           height="100%" />
        <use
           transform="matrix(0.01111111,0,0,0.01111111,47.311111,0)"
           xlink:href="#t"
           id="use136"
           x="0"
           y="0"
           width="100%"
           height="100%" />
        <use
           transform="matrix(0.01111111,0,0,0.01111111,53,0)"
           xlink:href="#w"
           id="use138"
           x="0"
           y="0"
           width="100%"
           height="100%" />
        <use
           transform="matrix(0.01111111,0,0,0.01111111,71.244444,0)"
           xlink:href="#x"
           id="use140"
           x="0"
           y="0"
           width="100%"
           height="100%" />
      </g>
      <path
         d="m 243,-146 c 204,-7 276,-136 277,-345 l 0,-942 193,0 0,938 C 709,-181 572,16 262,16 197,16 130,7 60,-12 c 7,-48 1,-109 24,-142 47,-28 93,10 159,8"
         id="y"
         inkscape:connector-curvature="0"
         style="fill:#ffffff" />
      <path
         d="m 537,-1031 c 235,0 353,147 353,383 L 890,0 C 832,-5 761,17 748,-42 l -20,-94 C 637,-55 545,19 375,16 200,13 92,-76 92,-253 c 0,-184 160,-243 332,-285 79,-19 176,-28 291,-31 12,-184 -31,-318 -200,-318 -113,0 -181,45 -243,91 -36,26 -82,14 -99,-17 l -32,-57 c 101,-96 215,-161 396,-161 z m -274,770 c 0,103 62,152 165,152 140,0 216,-64 287,-136 l 0,-211 c -141,4 -258,19 -349,60 -60,27 -103,62 -103,135"
         id="z"
         inkscape:connector-curvature="0"
         style="fill:#ffffff" />
      <path
         d="m 18,-1013 146,0 c 28,-1 47,18 55,37 l 257,652 c 18,45 27,93 37,143 12,-50 22,-98 40,-143 l 260,-652 c 17,-60 123,-30 192,-37 L 592,0 431,0"
         id="A"
         inkscape:connector-curvature="0"
         style="fill:#ffffff" />
      <g
         id="d">
        <use
           transform="scale(0.01111111,0.01111111)"
           xlink:href="#y"
           id="use146"
           x="0"
           y="0"
           width="100%"
           height="100%" />
        <use
           transform="matrix(0.01111111,0,0,0.01111111,9.8666667,0)"
           xlink:href="#z"
           id="use148"
           x="0"
           y="0"
           width="100%"
           height="100%" />
        <use
           transform="matrix(0.01111111,0,0,0.01111111,20.777778,0)"
           xlink:href="#A"
           id="use150"
           x="0"
           y="0"
           width="100%"
           height="100%" />
        <use
           transform="matrix(0.01111111,0,0,0.01111111,32.155556,0)"
           xlink:href="#z"
           id="use152"
           x="0"
           y="0"
           width="100%"
           height="100%" />
      </g>
      <path
         d="m 617,-1433 c 323,3 534,130 534,444 0,310 -216,446 -534,453 l -230,0 0,536 -193,0 0,-1433 423,0 z m 340,444 c 0,-197 -128,-291 -340,-291 l -230,0 0,590 230,0 c 207,-4 340,-97 340,-299"
         id="B"
         inkscape:connector-curvature="0"
         style="fill:#ffffff" />
      <path
         d="m 443,299 c -13,26 -25,44 -64,44 l -132,0 185,-402 -418,-954 154,0 c 30,-1 46,18 55,37 95,228 197,450 287,682 6,14 8,30 11,45 10,-32 18,-60 30,-90 l 263,-637 c 18,-60 124,-30 194,-37"
         id="C"
         inkscape:connector-curvature="0"
         style="fill:#ffffff" />
      <path
         d="m 598,-887 c -125,2 -207,68 -274,141 l 0,746 -178,0 0,-1473 178,0 0,596 c 81,-82 173,-152 326,-152 232,0 339,151 339,384 l 0,645 -178,0 0,-645 c 0,-149 -65,-244 -213,-242"
         id="D"
         inkscape:connector-curvature="0"
         style="fill:#ffffff" />
      <g
         id="e">
        <use
           transform="scale(0.01111111,0.01111111)"
           xlink:href="#B"
           id="use158"
           x="0"
           y="0"
           width="100%"
           height="100%" />
        <use
           transform="matrix(0.01111111,0,0,0.01111111,13.577778,0)"
           xlink:href="#C"
           id="use160"
           x="0"
           y="0"
           width="100%"
           height="100%" />
        <use
           transform="matrix(0.01111111,0,0,0.01111111,24.955556,0)"
           xlink:href="#r"
           id="use162"
           x="0"
           y="0"
           width="100%"
           height="100%" />
        <use
           transform="matrix(0.01111111,0,0,0.01111111,33.244444,0)"
           xlink:href="#D"
           id="use164"
           x="0"
           y="0"
           width="100%"
           height="100%" />
        <use
           transform="matrix(0.01111111,0,0,0.01111111,45.6,0)"
           xlink:href="#q"
           id="use166"
           x="0"
           y="0"
           width="100%"
           height="100%" />
        <use
           transform="matrix(0.01111111,0,0,0.01111111,57.955556,0)"
           xlink:href="#u"
           id="use168"
           x="0"
           y="0"
           width="100%"
           height="100%" />
      </g>
      <path
         d="M 1289,-200 C 1173,-69 1017,19 773,16 434,12 234,-164 139,-419 c -65,-176 -67,-421 3,-594 104,-257 318,-431 668,-436 220,-3 359,75 476,182 -27,35 -48,75 -79,105 -60,21 -86,-37 -135,-56 -109,-71 -336,-85 -474,-24 -190,83 -310,257 -310,526 0,268 114,444 301,527 146,65 383,42 487,-33 24,-17 50,-36 75,-59 20,-19 44,-22 62,-2"
         id="E"
         inkscape:connector-curvature="0"
         style="fill:#ffffff" />
      <path
         d="m 409,-112 c 121,-3 207,-52 207,-167 0,-134 -157,-142 -264,-181 -133,-48 -263,-98 -263,-275 0,-197 153,-290 360,-294 139,-3 243,49 317,118 -26,35 -46,114 -111,76 -53,-31 -114,-63 -202,-61 -108,3 -195,44 -195,147 0,129 158,136 262,175 128,48 263,93 263,264 C 783,-89 627,12 400,16 255,19 139,-39 62,-107 c 27,-41 57,-128 128,-81 57,38 118,78 219,76"
         id="F"
         inkscape:connector-curvature="0"
         style="fill:#ffffff" />
      <path
         d="m 584,-856 c -148,6 -210,94 -260,211 l 0,645 -178,0 0,-1013 c 62,7 151,-25 157,49 l 12,158 c 66,-138 184,-259 384,-216 23,5 44,16 63,27 l -23,133 c -5,17 -15,25 -31,25 -36,0 -71,-21 -124,-19"
         id="G"
         inkscape:connector-curvature="0"
         style="fill:#ffffff" />
      <g
         id="f">
        <use
           transform="scale(0.01111111,0.01111111)"
           xlink:href="#E"
           id="use174"
           x="0"
           y="0"
           width="100%"
           height="100%" />
        <use
           transform="matrix(0.01111111,0,0,0.01111111,15.222222,0)"
           xlink:href="#s"
           id="use176"
           x="0"
           y="0"
           width="100%"
           height="100%" />
        <use
           transform="matrix(0.01111111,0,0,0.01111111,20.911111,0)"
           xlink:href="#z"
           id="use178"
           x="0"
           y="0"
           width="100%"
           height="100%" />
        <use
           transform="matrix(0.01111111,0,0,0.01111111,32.177778,0)"
           xlink:href="#F"
           id="use180"
           x="0"
           y="0"
           width="100%"
           height="100%" />
        <use
           transform="matrix(0.01111111,0,0,0.01111111,41.822222,0)"
           xlink:href="#F"
           id="use182"
           x="0"
           y="0"
           width="100%"
           height="100%" />
        <use
           transform="matrix(0.01111111,0,0,0.01111111,51.466667,0)"
           xlink:href="#G"
           id="use184"
           x="0"
           y="0"
           width="100%"
           height="100%" />
        <use
           transform="matrix(0.01111111,0,0,0.01111111,60.422222,0)"
           xlink:href="#q"
           id="use186"
           x="0"
           y="0"
           width="100%"
           height="100%" />
        <use
           transform="matrix(0.01111111,0,0,0.01111111,72.777778,0)"
           xlink:href="#q"
           id="use188"
           x="0"
           y="0"
           width="100%"
           height="100%" />
        <use
           transform="matrix(0.01111111,0,0,0.01111111,85.133333,0)"
           xlink:href="#w"
           id="use190"
           x="0"
           y="0"
           width="100%"
           height="100%" />
      </g>
      <path
         d="m 513,-145 c 178,-4 292,-88 292,-262 0,-193 -194,-213 -343,-263 -182,-61 -347,-142 -342,-385 4,-188 111,-303 254,-361 117,-48 292,-41 408,5 66,26 124,62 173,110 -22,37 -36,86 -66,115 -51,25 -83,-28 -123,-48 -53,-26 -114,-56 -200,-54 -157,4 -266,71 -266,223 0,186 200,204 344,258 175,65 343,135 343,372 0,289 -185,446 -480,451 -198,4 -349,-81 -449,-187 26,-36 42,-83 76,-111 60,-25 93,39 140,65 62,34 135,75 239,72"
         id="H"
         inkscape:connector-curvature="0"
         style="fill:#ffffff" />
      <g
         id="g">
        <use
           transform="scale(0.01111111,0.01111111)"
           xlink:href="#H"
           id="use194"
           x="0"
           y="0"
           width="100%"
           height="100%" />
        <use
           transform="matrix(0.01111111,0,0,0.01111111,11.777778,0)"
           xlink:href="#x"
           id="use196"
           x="0"
           y="0"
           width="100%"
           height="100%" />
        <use
           transform="matrix(0.01111111,0,0,0.01111111,23.422222,0)"
           xlink:href="#G"
           id="use198"
           x="0"
           y="0"
           width="100%"
           height="100%" />
        <use
           transform="matrix(0.01111111,0,0,0.01111111,32.377778,0)"
           xlink:href="#A"
           id="use200"
           x="0"
           y="0"
           width="100%"
           height="100%" />
        <use
           transform="matrix(0.01111111,0,0,0.01111111,43.466667,0)"
           xlink:href="#x"
           id="use202"
           x="0"
           y="0"
           width="100%"
           height="100%" />
        <use
           transform="matrix(0.01111111,0,0,0.01111111,55.111111,0)"
           xlink:href="#G"
           id="use204"
           x="0"
           y="0"
           width="100%"
           height="100%" />
      </g>
      <path
         d="m 594,-1317 c -165,0 -237,72 -235,231 l 0,93 293,0 0,129 -287,0 0,864 -179,0 0,-861 c -49,-9 -113,-4 -146,-29 -24,-17 -10,-67 -14,-103 l 160,0 0,-98 c 5,-229 120,-363 348,-363 45,0 87,7 126,20 l -4,89 c -2,31 -28,28 -62,28"
         id="I"
         inkscape:connector-curvature="0"
         style="fill:#ffffff" />
      <g
         id="h">
        <use
           transform="scale(0.01111111,0.01111111)"
           xlink:href="#B"
           id="use208"
           x="0"
           y="0"
           width="100%"
           height="100%" />
        <use
           transform="matrix(0.01111111,0,0,0.01111111,13.577778,0)"
           xlink:href="#G"
           id="use210"
           x="0"
           y="0"
           width="100%"
           height="100%" />
        <use
           transform="matrix(0.01111111,0,0,0.01111111,22.533333,0)"
           xlink:href="#q"
           id="use212"
           x="0"
           y="0"
           width="100%"
           height="100%" />
        <use
           transform="matrix(0.01111111,0,0,0.01111111,34.888889,0)"
           xlink:href="#I"
           id="use214"
           x="0"
           y="0"
           width="100%"
           height="100%" />
        <use
           transform="matrix(0.01111111,0,0,0.01111111,42.377778,0)"
           xlink:href="#x"
           id="use216"
           x="0"
           y="0"
           width="100%"
           height="100%" />
        <use
           transform="matrix(0.01111111,0,0,0.01111111,54.022222,0)"
           xlink:href="#F"
           id="use218"
           x="0"
           y="0"
           width="100%"
           height="100%" />
        <use
           transform="matrix(0.01111111,0,0,0.01111111,63.666667,0)"
           xlink:href="#F"
           id="use220"
           x="0"
           y="0"
           width="100%"
           height="100%" />
        <use
           transform="matrix(0.01111111,0,0,0.01111111,73.311111,0)"
           xlink:href="#q"
           id="use222"
           x="0"
           y="0"
           width="100%"
           height="100%" />
        <use
           transform="matrix(0.01111111,0,0,0.01111111,85.666667,0)"
           xlink:href="#G"
           id="use224"
           x="0"
           y="0"
           width="100%"
           height="100%" />
      </g>
      <path
         d="m 510,-1031 c 133,0 210,49 277,120 l 0,-562 178,0 0,1473 C 905,-6 819,21 811,-37 L 795,-160 C 716,-67 616,14 455,14 173,14 72,-209 72,-503 c 0,-237 94,-406 254,-487 54,-27 115,-41 184,-41 z m -254,528 c 2,212 53,373 258,373 136,0 207,-69 273,-153 l 0,-490 c -57,-77 -121,-119 -237,-119 -208,0 -296,164 -294,389"
         id="J"
         inkscape:connector-curvature="0"
         style="fill:#ffffff" />
      <g
         id="i">
        <use
           transform="scale(0.01111111,0.01111111)"
           xlink:href="#H"
           id="use228"
           x="0"
           y="0"
           width="100%"
           height="100%" />
        <use
           transform="matrix(0.01111111,0,0,0.01111111,11.777778,0)"
           xlink:href="#r"
           id="use230"
           x="0"
           y="0"
           width="100%"
           height="100%" />
        <use
           transform="matrix(0.01111111,0,0,0.01111111,20.066667,0)"
           xlink:href="#v"
           id="use232"
           x="0"
           y="0"
           width="100%"
           height="100%" />
        <use
           transform="matrix(0.01111111,0,0,0.01111111,32.422222,0)"
           xlink:href="#J"
           id="use234"
           x="0"
           y="0"
           width="100%"
           height="100%" />
        <use
           transform="matrix(0.01111111,0,0,0.01111111,44.844444,0)"
           xlink:href="#x"
           id="use236"
           x="0"
           y="0"
           width="100%"
           height="100%" />
        <use
           transform="matrix(0.01111111,0,0,0.01111111,56.488889,0)"
           xlink:href="#u"
           id="use238"
           x="0"
           y="0"
           width="100%"
           height="100%" />
        <use
           transform="matrix(0.01111111,0,0,0.01111111,68.844444,0)"
           xlink:href="#r"
           id="use240"
           x="0"
           y="0"
           width="100%"
           height="100%" />
      </g>
      <g
         id="j">
        <use
           transform="scale(0.01111111,0.01111111)"
           xlink:href="#B"
           id="use243"
           x="0"
           y="0"
           width="100%"
           height="100%" />
        <use
           transform="matrix(0.01111111,0,0,0.01111111,13.577778,0)"
           xlink:href="#G"
           id="use245"
           x="0"
           y="0"
           width="100%"
           height="100%" />
        <use
           transform="matrix(0.01111111,0,0,0.01111111,22.533333,0)"
           xlink:href="#q"
           id="use247"
           x="0"
           y="0"
           width="100%"
           height="100%" />
        <use
           transform="matrix(0.01111111,0,0,0.01111111,34.888889,0)"
           xlink:href="#I"
           id="use249"
           x="0"
           y="0"
           width="100%"
           height="100%" />
        <use
           transform="matrix(0.01111111,0,0,0.01111111,42.377778,0)"
           xlink:href="#x"
           id="use251"
           x="0"
           y="0"
           width="100%"
           height="100%" />
        <use
           transform="matrix(0.01111111,0,0,0.01111111,54.022222,0)"
           xlink:href="#F"
           id="use253"
           x="0"
           y="0"
           width="100%"
           height="100%" />
        <use
           transform="matrix(0.01111111,0,0,0.01111111,63.666667,0)"
           xlink:href="#F"
           id="use255"
           x="0"
           y="0"
           width="100%"
           height="100%" />
        <use
           transform="matrix(0.01111111,0,0,0.01111111,73.311111,0)"
           xlink:href="#q"
           id="use257"
           x="0"
           y="0"
           width="100%"
           height="100%" />
        <use
           transform="matrix(0.01111111,0,0,0.01111111,85.666667,0)"
           xlink:href="#G"
           id="use259"
           x="0"
           y="0"
           width="100%"
           height="100%" />
      </g>
      <g
         id="k">
        <use
           transform="scale(0.01111111,0.01111111)"
           xlink:href="#H"
           id="use262"
           x="0"
           y="0"
           width="100%"
           height="100%" />
        <use
           transform="matrix(0.01111111,0,0,0.01111111,11.777778,0)"
           xlink:href="#x"
           id="use264"
           x="0"
           y="0"
           width="100%"
           height="100%" />
        <use
           transform="matrix(0.01111111,0,0,0.01111111,23.422222,0)"
           xlink:href="#G"
           id="use266"
           x="0"
           y="0"
           width="100%"
           height="100%" />
        <use
           transform="matrix(0.01111111,0,0,0.01111111,32.377778,0)"
           xlink:href="#A"
           id="use268"
           x="0"
           y="0"
           width="100%"
           height="100%" />
        <use
           transform="matrix(0.01111111,0,0,0.01111111,43.755556,0)"
           xlink:href="#t"
           id="use270"
           x="0"
           y="0"
           width="100%"
           height="100%" />
        <use
           transform="matrix(0.01111111,0,0,0.01111111,49.444444,0)"
           xlink:href="#o"
           id="use272"
           x="0"
           y="0"
           width="100%"
           height="100%" />
        <use
           transform="matrix(0.01111111,0,0,0.01111111,59.822222,0)"
           xlink:href="#x"
           id="use274"
           x="0"
           y="0"
           width="100%"
           height="100%" />
      </g>
    </defs>
  </g>
</svg>
